<?xml version="1.0" encoding="UTF-8"?>
<svg width="289px" height="51px" viewBox="0 0 289 51" version="1.1" xmlns="http://www.w3.org/2000/svg" xmlns:xlink="http://www.w3.org/1999/xlink">
    <!-- Generator: sketchtool 62 (101010) - https://sketch.com -->
    <title>3294B9E5-1A53-437C-B2CA-2018B9B45600@3x</title>
    <desc>Created with sketchtool.</desc>
    <g id="2020-Final" stroke="none" stroke-width="1" fill="none" fill-rule="evenodd">
        <g id="NADA-2020_Responsive" transform="translate(-43.000000, -212.000000)" fill-rule="nonzero">
            <g id="NADA-Text" transform="translate(43.000000, 212.000000)">
                <g id="Group-3">
                    <g id="Group" fill="#D224D2">
                        <polygon id="Path" points="10.9291945 48.5722286 10.9291945 22.6901696 28.3370353 48.5722286 37.5198122 48.5722286 37.5198122 0 26.5906177 0 26.5906177 25.8820589 9.18277686 0 1.66445119e-14 0 1.66445119e-14 48.5722286"></polygon>
                        <path d="M69.2383424,0 L86.6707662,48.5722286 L75.0866394,48.5722286 L71.99379,39.1353384 L55.348637,39.1353384 L52.2557876,48.5722286 L40.8965953,48.5722286 L58.2727855,0 L69.2383424,0 Z M63.5960817,13.5125749 L58.530907,29.2163781 L68.6612563,29.2163781 L63.5960817,13.5125749 Z" id="Combined-Shape"></path>
                        <path d="M108.249335,0 L108.784655,0.00518007398 C112.869352,0.084607875 116.507332,1.07745539 119.698594,2.98372261 C123.028607,4.97287102 125.610303,7.7946862 127.443681,11.4491682 C129.277059,15.1036501 130.193748,19.3826322 130.193748,24.2861143 C130.193748,29.1895964 129.277059,33.4685784 127.443681,37.1230604 C125.610303,40.7775424 123.028607,43.5993576 119.698594,45.588506 C116.368581,47.5776544 112.552161,48.5722286 108.249335,48.5722286 L108.249335,48.5722286 L89.6723512,48.5722286 L89.6723512,0 L108.249335,0 Z M108.021161,10.9561418 L100.928295,10.9561418 L100.928295,37.6160868 L108.021161,37.6160868 C111.425736,37.6160868 114.158854,36.4358288 116.220513,34.0753128 C118.282173,31.7147969 119.313003,28.4517307 119.313003,24.2861143 C119.313003,20.1204979 118.282173,16.8574317 116.220513,14.4969157 C114.158854,12.1363998 111.425736,10.9561418 108.021161,10.9561418 L108.021161,10.9561418 Z" id="Combined-Shape"></path>
                        <path d="M156.38158,0 L173.814004,48.5722286 L162.229877,48.5722286 L159.137028,39.1353384 L142.491875,39.1353384 L139.399025,48.5722286 L128.039833,48.5722286 L145.416023,0 L156.38158,0 Z M151.114518,13.5125749 L146.049343,29.2163781 L156.179692,29.2163781 L151.114518,13.5125749 Z" id="Combined-Shape"></path>
                    </g>
                    <g id="Group" transform="translate(3.150000, 0.000000)" fill="#00FFFF">
                        <polygon id="Path" points="10.9291945 48.5722286 10.9291945 22.6901696 28.3370353 48.5722286 37.5198122 48.5722286 37.5198122 0 26.5906177 0 26.5906177 25.8820589 9.18277686 0 1.66445119e-14 0 1.66445119e-14 48.5722286"></polygon>
                        <path d="M69.2383424,0 L86.6707662,48.5722286 L75.0866394,48.5722286 L71.99379,39.1353384 L55.348637,39.1353384 L52.2557876,48.5722286 L40.8965953,48.5722286 L58.2727855,0 L69.2383424,0 Z M63.5960817,13.5125749 L58.530907,29.2163781 L68.6612563,29.2163781 L63.5960817,13.5125749 Z" id="Combined-Shape"></path>
                        <path d="M108.249335,0 L108.784655,0.00518007398 C112.869352,0.084607875 116.507332,1.07745539 119.698594,2.98372261 C123.028607,4.97287102 125.610303,7.7946862 127.443681,11.4491682 C129.277059,15.1036501 130.193748,19.3826322 130.193748,24.2861143 C130.193748,29.1895964 129.277059,33.4685784 127.443681,37.1230604 C125.610303,40.7775424 123.028607,43.5993576 119.698594,45.588506 C116.368581,47.5776544 112.552161,48.5722286 108.249335,48.5722286 L108.249335,48.5722286 L89.6723512,48.5722286 L89.6723512,0 L108.249335,0 Z M108.021161,10.9561418 L100.928295,10.9561418 L100.928295,37.6160868 L108.021161,37.6160868 C111.425736,37.6160868 114.158854,36.4358288 116.220513,34.0753128 C118.282173,31.7147969 119.313003,28.4517307 119.313003,24.2861143 C119.313003,20.1204979 118.282173,16.8574317 116.220513,14.4969157 C114.158854,12.1363998 111.425736,10.9561418 108.021161,10.9561418 L108.021161,10.9561418 Z" id="Combined-Shape"></path>
                        <path d="M156.38158,0 L173.814004,48.5722286 L162.229877,48.5722286 L159.137028,39.1353384 L142.491875,39.1353384 L139.399025,48.5722286 L128.039833,48.5722286 L145.416023,0 L156.38158,0 Z M151.114518,13.5125749 L146.049343,29.2163781 L156.179692,29.2163781 L151.114518,13.5125749 Z" id="Combined-Shape"></path>
                    </g>
                    <g id="Group" transform="translate(1.800000, 0.000000)" fill="#FFFFFF">
                        <polygon id="Path" points="10.9291945 48.5722286 10.9291945 22.6901696 28.3370353 48.5722286 37.5198122 48.5722286 37.5198122 0 26.5906177 0 26.5906177 25.8820589 9.18277686 0 1.66445119e-14 0 1.66445119e-14 48.5722286"></polygon>
                        <path d="M69.2383424,0 L86.6707662,48.5722286 L75.0866394,48.5722286 L71.99379,39.1353384 L55.348637,39.1353384 L52.2557876,48.5722286 L40.8965953,48.5722286 L58.2727855,0 L69.2383424,0 Z M63.5960817,13.5125749 L58.530907,29.2163781 L68.6612563,29.2163781 L63.5960817,13.5125749 Z" id="Combined-Shape"></path>
                        <path d="M108.249335,0 L108.784655,0.00518007398 C112.869352,0.084607875 116.507332,1.07745539 119.698594,2.98372261 C123.028607,4.97287102 125.610303,7.7946862 127.443681,11.4491682 C129.277059,15.1036501 130.193748,19.3826322 130.193748,24.2861143 C130.193748,29.1895964 129.277059,33.4685784 127.443681,37.1230604 C125.610303,40.7775424 123.028607,43.5993576 119.698594,45.588506 C116.368581,47.5776544 112.552161,48.5722286 108.249335,48.5722286 L108.249335,48.5722286 L89.6723512,48.5722286 L89.6723512,0 L108.249335,0 Z M108.021161,10.9561418 L100.928295,10.9561418 L100.928295,37.6160868 L108.021161,37.6160868 C111.425736,37.6160868 114.158854,36.4358288 116.220513,34.0753128 C118.282173,31.7147969 119.313003,28.4517307 119.313003,24.2861143 C119.313003,20.1204979 118.282173,16.8574317 116.220513,14.4969157 C114.158854,12.1363998 111.425736,10.9561418 108.021161,10.9561418 L108.021161,10.9561418 Z" id="Combined-Shape"></path>
                        <path d="M156.38158,0 L173.814004,48.5722286 L162.229877,48.5722286 L159.137028,39.1353384 L142.491875,39.1353384 L139.399025,48.5722286 L128.039833,48.5722286 L145.416023,0 L156.38158,0 Z M151.114518,13.5125749 L146.049343,29.2163781 L156.179692,29.2163781 L151.114518,13.5125749 Z" id="Combined-Shape"></path>
                    </g>
                </g>
                <path d="M210.739572,33.6571429 L210.739572,27.4173355 L198.592493,27.4173355 L205.089768,20.2321027 C206.946132,18.2151953 208.19716,16.4188871 208.842852,14.8431782 C209.488544,13.2674692 209.81139,11.5814607 209.81139,9.78515249 C209.81139,7.79975923 209.374203,6.07435795 208.499828,4.60894864 C207.625454,3.14353933 206.40133,2.00902889 204.827456,1.20541734 C203.253582,0.401805778 201.417395,0 199.318897,0 C196.816841,0 194.597275,0.543619583 192.660199,1.63085875 C190.723123,2.71809791 189.203057,4.22289995 188.1,6.14526485 L188.1,6.14526485 L192.861978,9.73788122 C193.534573,8.63488497 194.368592,7.80763777 195.364034,7.25613965 C196.359476,6.70464152 197.475984,6.42889246 198.713561,6.42889246 C200.193271,6.42889246 201.316506,6.78342697 202.083265,7.49249599 C202.850024,8.20156501 203.233404,9.21789727 203.233404,10.5414928 C203.233404,11.455404 203.031625,12.3771937 202.628068,13.306862 C202.22451,14.2365302 201.444299,15.347405 200.287435,16.6394864 L200.287435,16.6394864 L189.391384,28.6936597 L189.391384,33.6571429 L210.739572,33.6571429 Z M225.563102,34.2 C227.907914,34.2 229.996684,33.5229282 231.829412,32.1687845 C233.662139,30.8146409 235.097326,28.8542818 236.134973,26.2877072 C237.17262,23.7211326 237.691444,20.6585635 237.691444,17.1 C237.691444,13.5414365 237.17262,10.4788674 236.134973,7.91229282 C235.097326,5.34571823 233.662139,3.38535912 231.829412,2.03121547 C229.996684,0.677071823 227.907914,0 225.563102,0 C223.218289,0 221.129519,0.677071823 219.296791,2.03121547 C217.464064,3.38535912 216.028877,5.34571823 214.99123,7.91229282 C213.953583,10.4788674 213.434759,13.5414365 213.434759,17.1 C213.434759,20.6585635 213.953583,23.7211326 214.99123,26.2877072 C216.028877,28.8542818 217.464064,30.8146409 219.296791,32.1687845 C221.129519,33.5229282 223.218289,34.2 225.563102,34.2 Z M225.812875,27.6857143 C224.154299,27.6857143 222.84455,26.8231746 221.883628,25.0980952 C220.922707,23.3730159 220.442246,20.7069841 220.442246,17.1 C220.442246,13.4930159 220.922707,10.8269841 221.883628,9.10190476 C222.84455,7.3768254 224.154299,6.51428571 225.812875,6.51428571 C227.497779,6.51428571 228.820691,7.3768254 229.781613,9.10190476 C230.742534,10.8269841 231.222995,13.4930159 231.222995,17.1 C231.222995,20.7069841 230.742534,23.3730159 229.781613,25.0980952 C228.820691,26.8231746 227.497779,27.6857143 225.812875,27.6857143 Z M261.948128,33.6571429 L261.948128,27.4173355 L249.80105,27.4173355 L256.298324,20.2321027 C258.154688,18.2151953 259.405716,16.4188871 260.051408,14.8431782 C260.6971,13.2674692 261.019946,11.5814607 261.019946,9.78515249 C261.019946,7.79975923 260.582759,6.07435795 259.708385,4.60894864 C258.83401,3.14353933 257.609886,2.00902889 256.036012,1.20541734 C254.462138,0.401805778 252.625952,0 250.527453,0 C248.025397,0 245.805831,0.543619583 243.868755,1.63085875 C241.931679,2.71809791 240.411613,4.22289995 239.308556,6.14526485 L239.308556,6.14526485 L244.070534,9.73788122 C244.74313,8.63488497 245.577148,7.80763777 246.57259,7.25613965 C247.568032,6.70464152 248.684541,6.42889246 249.922117,6.42889246 C251.401827,6.42889246 252.525062,6.78342697 253.291821,7.49249599 C254.05858,8.20156501 254.44196,9.21789727 254.44196,10.5414928 C254.44196,11.455404 254.240181,12.3771937 253.836624,13.306862 C253.433066,14.2365302 252.652855,15.347405 251.495991,16.6394864 L251.495991,16.6394864 L240.59994,28.6936597 L240.59994,33.6571429 L261.948128,33.6571429 Z M276.771658,34.2 C279.116471,34.2 281.205241,33.5229282 283.037968,32.1687845 C284.870695,30.8146409 286.305882,28.8542818 287.343529,26.2877072 C288.381176,23.7211326 288.9,20.6585635 288.9,17.1 C288.9,13.5414365 288.381176,10.4788674 287.343529,7.91229282 C286.305882,5.34571823 284.870695,3.38535912 283.037968,2.03121547 C281.205241,0.677071823 279.116471,0 276.771658,0 C274.426845,0 272.338075,0.677071823 270.505348,2.03121547 C268.67262,3.38535912 267.237433,5.34571823 266.199786,7.91229282 C265.162139,10.4788674 264.643316,13.5414365 264.643316,17.1 C264.643316,20.6585635 265.162139,23.7211326 266.199786,26.2877072 C267.237433,28.8542818 268.67262,30.8146409 270.505348,32.1687845 C272.338075,33.5229282 274.426845,34.2 276.771658,34.2 Z M277.021432,27.6857143 C275.362855,27.6857143 274.053106,26.8231746 273.092184,25.0980952 C272.131263,23.3730159 271.650802,20.7069841 271.650802,17.1 C271.650802,13.4930159 272.131263,10.8269841 273.092184,9.10190476 C274.053106,7.3768254 275.362855,6.51428571 277.021432,6.51428571 C278.706335,6.51428571 280.029247,7.3768254 280.990169,9.10190476 C281.95109,10.8269841 282.431551,13.4930159 282.431551,17.1 C282.431551,20.7069841 281.95109,23.3730159 280.990169,25.0980952 C280.029247,26.8231746 278.706335,27.6857143 277.021432,27.6857143 Z" id="2020" fill="#FFFFFF"></path>
                <path d="M190.032,48.3 L190.032,44.652 L194.196,44.652 L194.196,43.764 L190.032,43.764 L190.032,41.184 L194.28,41.184 L194.28,40.296 L189.036,40.296 L189.036,48.3 L190.032,48.3 Z M198.216,48.444 C199.164,48.444 199.944,48.132 200.52,47.556 L200.088,46.968 C199.632,47.436 198.96,47.7 198.3,47.7 C197.052,47.7 196.284,46.788 196.212,45.696 L200.904,45.696 L200.904,45.468 C200.904,43.728 199.872,42.36 198.12,42.36 C196.464,42.36 195.264,43.716 195.264,45.396 C195.264,47.208 196.5,48.444 198.216,48.444 Z M200.016,45.036 L196.212,45.036 C196.26,44.148 196.872,43.104 198.108,43.104 C199.428,43.104 200.004,44.172 200.016,45.036 Z M205.212,48.444 C206.724,48.444 207.792,47.292 207.792,45.408 C207.792,43.56 206.724,42.36 205.212,42.36 C204.42,42.36 203.724,42.744 203.256,43.38 L203.256,40.296 L202.356,40.296 L202.356,48.3 L203.256,48.3 L203.256,47.436 C203.688,48.024 204.396,48.444 205.212,48.444 Z M204.984,47.64 C204.276,47.64 203.568,47.232 203.256,46.728 L203.256,44.1 C203.568,43.596 204.276,43.164 204.984,43.164 C206.16,43.164 206.856,44.124 206.856,45.408 C206.856,46.692 206.16,47.64 204.984,47.64 Z M210.156,48.3 L210.156,44.196 C210.42,43.728 211.176,43.272 211.728,43.272 C211.872,43.272 211.98,43.284 212.088,43.308 L212.088,42.384 C211.296,42.384 210.624,42.828 210.156,43.44 L210.156,42.504 L209.256,42.504 L209.256,48.3 L210.156,48.3 Z M215.064,48.444 C215.928,48.444 216.684,47.988 217.128,47.484 L217.128,48.3 L218.028,48.3 L218.028,42.504 L217.128,42.504 L217.128,46.764 C216.792,47.232 216.12,47.64 215.412,47.64 C214.632,47.64 214.116,47.34 214.116,46.32 L214.116,42.504 L213.216,42.504 L213.216,46.596 C213.216,47.856 213.852,48.444 215.064,48.444 Z M221.532,48.444 C222.312,48.444 222.972,48.168 223.452,47.64 L223.452,48.3 L224.352,48.3 L224.352,44.316 C224.352,42.912 223.332,42.36 222.108,42.36 C221.16,42.36 220.416,42.672 219.792,43.32 L220.212,43.944 C220.728,43.392 221.292,43.14 221.988,43.14 C222.828,43.14 223.452,43.584 223.452,44.364 L223.452,45.408 C222.984,44.868 222.324,44.616 221.532,44.616 C220.548,44.616 219.504,45.228 219.504,46.524 C219.504,47.784 220.548,48.444 221.532,48.444 Z M221.856,47.796 C221.016,47.796 220.428,47.268 220.428,46.536 C220.428,45.792 221.016,45.264 221.856,45.264 C222.492,45.264 223.104,45.504 223.452,45.984 L223.452,47.076 C223.104,47.556 222.492,47.796 221.856,47.796 Z M227.052,48.3 L227.052,44.196 C227.316,43.728 228.072,43.272 228.624,43.272 C228.768,43.272 228.876,43.284 228.984,43.308 L228.984,42.384 C228.192,42.384 227.52,42.828 227.052,43.44 L227.052,42.504 L226.152,42.504 L226.152,48.3 L227.052,48.3 Z M230.448,50.652 C231.216,50.64 231.804,50.316 232.152,49.476 L235.056,42.504 L234.072,42.504 L232.152,47.256 L230.22,42.504 L229.248,42.504 L231.672,48.36 L231.288,49.236 C231.084,49.716 230.82,49.848 230.424,49.848 C230.28,49.848 230.064,49.812 229.932,49.752 L229.788,50.568 C229.956,50.616 230.256,50.652 230.448,50.652 Z M241.32,48.3 L241.32,40.296 L240.444,40.296 L238.44,42.36 L239.04,42.972 L240.324,41.616 L240.324,48.3 L241.32,48.3 Z M247.44,48.3 L247.44,46.272 L248.568,46.272 L248.568,45.396 L247.44,45.396 L247.44,40.296 L246.072,40.296 L242.64,45.444 L242.64,46.272 L246.444,46.272 L246.444,48.3 L247.44,48.3 Z M246.444,45.396 L243.636,45.396 L246.444,41.22 L246.444,45.396 Z M255.288,45.792 L255.288,45 L252.408,45 L252.408,45.792 L255.288,45.792 Z M261.876,48.3 L261.876,40.296 L261,40.296 L258.996,42.36 L259.596,42.972 L260.88,41.616 L260.88,48.3 L261.876,48.3 Z M265.368,48.3 L268.644,40.98 L268.644,40.296 L263.184,40.296 L263.184,41.184 L267.492,41.184 L264.264,48.3 L265.368,48.3 Z" id="February14-17" fill="#FFFFFF"></path>
            </g>
        </g>
    </g>
</svg>