<?xml version="1.0" encoding="UTF-8"?>
<svg width="642px" height="200px" viewBox="0 0 642 200" version="1.1" xmlns="http://www.w3.org/2000/svg" xmlns:xlink="http://www.w3.org/1999/xlink">
    <!-- Generator: sketchtool 62 (101010) - https://sketch.com -->
    <title>529085E2-AD17-4B93-9E67-4354E5721094@3x</title>
    <desc>Created with sketchtool.</desc>
    <g id="2020-Final" stroke="none" stroke-width="1" fill="none" fill-rule="evenodd">
        <g id="NADA-2020_Micro-site" transform="translate(-152.000000, -250.000000)" fill-rule="nonzero">
            <g id="NADA-text" transform="translate(152.000000, 250.000000)">
                <g id="Group-3" transform="translate(0.000000, 86.000000)">
                    <g id="Group" fill="#D224D2">
                        <polygon id="Path" points="24.287099 107.938286 24.287099 50.4225992 62.9711896 107.938286 83.3773604 107.938286 83.3773604 0 59.0902615 0 59.0902615 57.5156865 20.4061708 0 3.69878041e-14 0 3.69878041e-14 107.938286"></polygon>
                        <path d="M153.862983,0 L192.601703,107.938286 L166.859199,107.938286 L159.9862,86.9674188 L122.996971,86.9674188 L116.123972,107.938286 L90.8813229,107.938286 L129.495079,0 L153.862983,0 Z M141.324626,30.0279441 L130.068682,64.9252846 L152.58057,64.9252846 L141.324626,30.0279441 Z" id="Combined-Shape"></path>
                        <path d="M240.554078,0 L241.287472,0.0043592996 C250.550123,0.11479489 258.786591,2.32350669 265.996876,6.63049469 C273.396905,11.0508245 279.134007,17.3215249 283.20818,25.4425959 C287.282354,33.5636669 289.319441,43.0725159 289.319441,53.9691429 C289.319441,64.8657698 287.282354,74.3746188 283.20818,82.4956898 C279.134007,90.6167608 273.396905,96.8874612 265.996876,101.307791 C258.596847,105.728121 250.115914,107.938286 240.554078,107.938286 L240.554078,107.938286 L199.271891,107.938286 L199.271891,0 L240.554078,0 Z M240.047023,24.3469817 L224.2851,24.3469817 L224.2851,83.591304 L240.047023,83.591304 C247.612747,83.591304 253.686342,80.9685085 258.267807,75.7229174 C262.849273,70.4773264 265.140006,63.2260682 265.140006,53.9691429 C265.140006,44.7122175 262.849273,37.4609593 258.267807,32.2153683 C253.686342,26.9697773 247.612747,24.3469817 240.047023,24.3469817 L240.047023,24.3469817 Z" id="Combined-Shape"></path>
                        <path d="M347.514623,0 L386.253342,107.938286 L360.510838,107.938286 L353.63784,86.9674188 L316.648611,86.9674188 L309.775612,107.938286 L284.532963,107.938286 L323.146719,0 L347.514623,0 Z M335.810039,30.0279441 L324.554096,64.9252846 L347.065983,64.9252846 L335.810039,30.0279441 Z" id="Combined-Shape"></path>
                    </g>
                    <g id="Group" transform="translate(7.000000, 0.000000)" fill="#00FFFF">
                        <polygon id="Path" points="24.287099 107.938286 24.287099 50.4225992 62.9711896 107.938286 83.3773604 107.938286 83.3773604 0 59.0902615 0 59.0902615 57.5156865 20.4061708 0 3.69878041e-14 0 3.69878041e-14 107.938286"></polygon>
                        <path d="M153.862983,0 L192.601703,107.938286 L166.859199,107.938286 L159.9862,86.9674188 L122.996971,86.9674188 L116.123972,107.938286 L90.8813229,107.938286 L129.495079,0 L153.862983,0 Z M141.324626,30.0279441 L130.068682,64.9252846 L152.58057,64.9252846 L141.324626,30.0279441 Z" id="Combined-Shape"></path>
                        <path d="M240.554078,0 L241.287472,0.0043592996 C250.550123,0.11479489 258.786591,2.32350669 265.996876,6.63049469 C273.396905,11.0508245 279.134007,17.3215249 283.20818,25.4425959 C287.282354,33.5636669 289.319441,43.0725159 289.319441,53.9691429 C289.319441,64.8657698 287.282354,74.3746188 283.20818,82.4956898 C279.134007,90.6167608 273.396905,96.8874612 265.996876,101.307791 C258.596847,105.728121 250.115914,107.938286 240.554078,107.938286 L240.554078,107.938286 L199.271891,107.938286 L199.271891,0 L240.554078,0 Z M240.047023,24.3469817 L224.2851,24.3469817 L224.2851,83.591304 L240.047023,83.591304 C247.612747,83.591304 253.686342,80.9685085 258.267807,75.7229174 C262.849273,70.4773264 265.140006,63.2260682 265.140006,53.9691429 C265.140006,44.7122175 262.849273,37.4609593 258.267807,32.2153683 C253.686342,26.9697773 247.612747,24.3469817 240.047023,24.3469817 L240.047023,24.3469817 Z" id="Combined-Shape"></path>
                        <path d="M347.514623,0 L386.253342,107.938286 L360.510838,107.938286 L353.63784,86.9674188 L316.648611,86.9674188 L309.775612,107.938286 L284.532963,107.938286 L323.146719,0 L347.514623,0 Z M335.810039,30.0279441 L324.554096,64.9252846 L347.065983,64.9252846 L335.810039,30.0279441 Z" id="Combined-Shape"></path>
                    </g>
                    <g id="Group" transform="translate(4.000000, 0.000000)" fill="#FFFFFF">
                        <polygon id="Path" points="24.287099 107.938286 24.287099 50.4225992 62.9711896 107.938286 83.3773604 107.938286 83.3773604 0 59.0902615 0 59.0902615 57.5156865 20.4061708 0 3.69878041e-14 0 3.69878041e-14 107.938286"></polygon>
                        <path d="M153.862983,0 L192.601703,107.938286 L166.859199,107.938286 L159.9862,86.9674188 L122.996971,86.9674188 L116.123972,107.938286 L90.8813229,107.938286 L129.495079,0 L153.862983,0 Z M141.324626,30.0279441 L130.068682,64.9252846 L152.58057,64.9252846 L141.324626,30.0279441 Z" id="Combined-Shape"></path>
                        <path d="M240.554078,0 L241.287472,0.0043592996 C250.550123,0.11479489 258.786591,2.32350669 265.996876,6.63049469 C273.396905,11.0508245 279.134007,17.3215249 283.20818,25.4425959 C287.282354,33.5636669 289.319441,43.0725159 289.319441,53.9691429 C289.319441,64.8657698 287.282354,74.3746188 283.20818,82.4956898 C279.134007,90.6167608 273.396905,96.8874612 265.996876,101.307791 C258.596847,105.728121 250.115914,107.938286 240.554078,107.938286 L240.554078,107.938286 L199.271891,107.938286 L199.271891,0 L240.554078,0 Z M240.047023,24.3469817 L224.2851,24.3469817 L224.2851,83.591304 L240.047023,83.591304 C247.612747,83.591304 253.686342,80.9685085 258.267807,75.7229174 C262.849273,70.4773264 265.140006,63.2260682 265.140006,53.9691429 C265.140006,44.7122175 262.849273,37.4609593 258.267807,32.2153683 C253.686342,26.9697773 247.612747,24.3469817 240.047023,24.3469817 L240.047023,24.3469817 Z" id="Combined-Shape"></path>
                        <path d="M347.514623,0 L386.253342,107.938286 L360.510838,107.938286 L353.63784,86.9674188 L316.648611,86.9674188 L309.775612,107.938286 L284.532963,107.938286 L323.146719,0 L347.514623,0 Z M335.810039,30.0279441 L324.554096,64.9252846 L347.065983,64.9252846 L335.810039,30.0279441 Z" id="Combined-Shape"></path>
                    </g>
                </g>
                <path d="M468.31016,160.793651 L468.31016,146.927412 L441.316652,146.927412 L455.75504,130.960228 C459.880294,126.478212 462.660356,122.486416 464.095227,118.98484 C465.530098,115.483265 466.247534,111.736579 466.247534,107.744783 C466.247534,103.332798 465.276006,99.4985732 463.332952,96.2421081 C461.389898,92.9856429 458.669622,90.4645086 455.172124,88.6787052 C451.674626,86.8929017 447.594212,86 442.930882,86 C437.370757,86 432.438388,87.2080435 428.133776,89.6241306 C423.829163,92.0402176 420.451238,95.3842221 418,99.6561441 L418,99.6561441 L428.582173,107.639736 C430.07683,105.188633 431.930205,103.350306 434.142297,102.124755 C436.35439,100.899203 438.835521,100.286428 441.58569,100.286428 C444.873936,100.286428 447.370013,101.074282 449.073923,102.649991 C450.777832,104.2257 451.629786,106.484216 451.629786,109.42554 C451.629786,111.456453 451.181389,113.504875 450.284595,115.570804 C449.387801,117.636734 447.653998,120.105345 445.083188,122.976636 L445.083188,122.976636 L420.869742,149.763688 L420.869742,160.793651 L468.31016,160.793651 Z M501.251337,162 C506.462032,162 511.103743,160.495396 515.176471,157.486188 C519.249198,154.47698 522.438503,150.120626 524.744385,144.417127 C527.050267,138.713628 528.203209,131.907919 528.203209,124 C528.203209,116.092081 527.050267,109.286372 524.744385,103.582873 C522.438503,97.8793738 519.249198,93.5230203 515.176471,90.5138122 C511.103743,87.5046041 506.462032,86 501.251337,86 C496.040642,86 491.39893,87.5046041 487.326203,90.5138122 C483.253476,93.5230203 480.064171,97.8793738 477.758289,103.582873 C475.452406,109.286372 474.299465,116.092081 474.299465,124 C474.299465,131.907919 475.452406,138.713628 477.758289,144.417127 C480.064171,150.120626 483.253476,154.47698 487.326203,157.486188 C491.39893,160.495396 496.040642,162 501.251337,162 Z M501.80639,147.52381 C498.120664,147.52381 495.21011,145.607055 493.074729,141.773545 C490.939348,137.940035 489.871658,132.01552 489.871658,124 C489.871658,115.98448 490.939348,110.059965 493.074729,106.226455 C495.21011,102.392945 498.120664,100.47619 501.80639,100.47619 C505.550619,100.47619 508.490425,102.392945 510.625806,106.226455 C512.761187,110.059965 513.828877,115.98448 513.828877,124 C513.828877,132.01552 512.761187,137.940035 510.625806,141.773545 C508.490425,145.607055 505.550619,147.52381 501.80639,147.52381 Z M582.106952,160.793651 L582.106952,146.927412 L555.113443,146.927412 L569.551832,130.960228 C573.677085,126.478212 576.457148,122.486416 577.892019,118.98484 C579.32689,115.483265 580.044325,111.736579 580.044325,107.744783 C580.044325,103.332798 579.072798,99.4985732 577.129743,96.2421081 C575.186689,92.9856429 572.466413,90.4645086 568.968915,88.6787052 C565.471418,86.8929017 561.391003,86 556.727673,86 C551.167548,86 546.23518,87.2080435 541.930567,89.6241306 C537.625954,92.0402176 534.248029,95.3842221 531.796791,99.6561441 L531.796791,99.6561441 L542.378964,107.639736 C543.873621,105.188633 545.726996,103.350306 547.939089,102.124755 C550.151182,100.899203 552.632312,100.286428 555.382482,100.286428 C558.670727,100.286428 561.166805,101.074282 562.870714,102.649991 C564.574623,104.2257 565.426578,106.484216 565.426578,109.42554 C565.426578,111.456453 564.978181,113.504875 564.081386,115.570804 C563.184592,117.636734 561.45079,120.105345 558.879979,122.976636 L558.879979,122.976636 L534.666533,149.763688 L534.666533,160.793651 L582.106952,160.793651 Z M615.048128,162 C620.258824,162 624.900535,160.495396 628.973262,157.486188 C633.045989,154.47698 636.235294,150.120626 638.541176,144.417127 C640.847059,138.713628 642,131.907919 642,124 C642,116.092081 640.847059,109.286372 638.541176,103.582873 C636.235294,97.8793738 633.045989,93.5230203 628.973262,90.5138122 C624.900535,87.5046041 620.258824,86 615.048128,86 C609.837433,86 605.195722,87.5046041 601.122995,90.5138122 C597.050267,93.5230203 593.860963,97.8793738 591.55508,103.582873 C589.249198,109.286372 588.096257,116.092081 588.096257,124 C588.096257,131.907919 589.249198,138.713628 591.55508,144.417127 C593.860963,150.120626 597.050267,154.47698 601.122995,157.486188 C605.195722,160.495396 609.837433,162 615.048128,162 Z M615.603181,147.52381 C611.917455,147.52381 609.006902,145.607055 606.871521,141.773545 C604.73614,137.940035 603.668449,132.01552 603.668449,124 C603.668449,115.98448 604.73614,110.059965 606.871521,106.226455 C609.006902,102.392945 611.917455,100.47619 615.603181,100.47619 C619.347411,100.47619 622.287216,102.392945 624.422597,106.226455 C626.557978,110.059965 627.625668,115.98448 627.625668,124 C627.625668,132.01552 626.557978,137.940035 624.422597,141.773545 C622.287216,145.607055 619.347411,147.52381 615.603181,147.52381 Z" id="2020" fill="#FFFFFF"></path>
                <path d="M422.508,194 L422.508,185.488 L432.224,185.488 L432.224,183.416 L422.508,183.416 L422.508,177.396 L432.42,177.396 L432.42,175.324 L420.184,175.324 L420.184,194 L422.508,194 Z M441.604,194.336 C443.816,194.336 445.636,193.608 446.98,192.264 L445.972,190.892 C444.908,191.984 443.34,192.6 441.8,192.6 C438.888,192.6 437.096,190.472 436.928,187.924 L447.876,187.924 L447.876,187.392 C447.876,183.332 445.468,180.14 441.38,180.14 C437.516,180.14 434.716,183.304 434.716,187.224 C434.716,191.452 437.6,194.336 441.604,194.336 Z M445.804,186.384 L436.928,186.384 C437.04,184.312 438.468,181.876 441.352,181.876 C444.432,181.876 445.776,184.368 445.804,186.384 Z M457.928,194.336 C461.456,194.336 463.948,191.648 463.948,187.252 C463.948,182.94 461.456,180.14 457.928,180.14 C456.08,180.14 454.456,181.036 453.364,182.52 L453.364,175.324 L451.264,175.324 L451.264,194 L453.364,194 L453.364,191.984 C454.372,193.356 456.024,194.336 457.928,194.336 Z M457.396,192.46 C455.744,192.46 454.092,191.508 453.364,190.332 L453.364,184.2 C454.092,183.024 455.744,182.016 457.396,182.016 C460.14,182.016 461.764,184.256 461.764,187.252 C461.764,190.248 460.14,192.46 457.396,192.46 Z M469.464,194 L469.464,184.424 C470.08,183.332 471.844,182.268 473.132,182.268 C473.468,182.268 473.72,182.296 473.972,182.352 L473.972,180.196 C472.124,180.196 470.556,181.232 469.464,182.66 L469.464,180.476 L467.364,180.476 L467.364,194 L469.464,194 Z M480.916,194.336 C482.932,194.336 484.696,193.272 485.732,192.096 L485.732,194 L487.832,194 L487.832,180.476 L485.732,180.476 L485.732,190.416 C484.948,191.508 483.38,192.46 481.728,192.46 C479.908,192.46 478.704,191.76 478.704,189.38 L478.704,180.476 L476.604,180.476 L476.604,190.024 C476.604,192.964 478.088,194.336 480.916,194.336 Z M496.008,194.336 C497.828,194.336 499.368,193.692 500.488,192.46 L500.488,194 L502.588,194 L502.588,184.704 C502.588,181.428 500.208,180.14 497.352,180.14 C495.14,180.14 493.404,180.868 491.948,182.38 L492.928,183.836 C494.132,182.548 495.448,181.96 497.072,181.96 C499.032,181.96 500.488,182.996 500.488,184.816 L500.488,187.252 C499.396,185.992 497.856,185.404 496.008,185.404 C493.712,185.404 491.276,186.832 491.276,189.856 C491.276,192.796 493.712,194.336 496.008,194.336 Z M496.764,192.824 C494.804,192.824 493.432,191.592 493.432,189.884 C493.432,188.148 494.804,186.916 496.764,186.916 C498.248,186.916 499.676,187.476 500.488,188.596 L500.488,191.144 C499.676,192.264 498.248,192.824 496.764,192.824 Z M508.888,194 L508.888,184.424 C509.504,183.332 511.268,182.268 512.556,182.268 C512.892,182.268 513.144,182.296 513.396,182.352 L513.396,180.196 C511.548,180.196 509.98,181.232 508.888,182.66 L508.888,180.476 L506.788,180.476 L506.788,194 L508.888,194 Z M516.812,199.488 C518.604,199.46 519.976,198.704 520.788,196.744 L527.564,180.476 L525.268,180.476 L520.788,191.564 L516.28,180.476 L514.012,180.476 L519.668,194.14 L518.772,196.184 C518.296,197.304 517.68,197.612 516.756,197.612 C516.42,197.612 515.916,197.528 515.608,197.388 L515.272,199.292 C515.664,199.404 516.364,199.488 516.812,199.488 Z M542.18,194 L542.18,175.324 L540.136,175.324 L535.46,180.14 L536.86,181.568 L539.856,178.404 L539.856,194 L542.18,194 Z M556.46,194 L556.46,189.268 L559.092,189.268 L559.092,187.224 L556.46,187.224 L556.46,175.324 L553.268,175.324 L545.26,187.336 L545.26,189.268 L554.136,189.268 L554.136,194 L556.46,194 Z M554.136,187.224 L547.584,187.224 L554.136,177.48 L554.136,187.224 Z M574.772,188.148 L574.772,186.3 L568.052,186.3 L568.052,188.148 L574.772,188.148 Z M590.144,194 L590.144,175.324 L588.1,175.324 L583.424,180.14 L584.824,181.568 L587.82,178.404 L587.82,194 L590.144,194 Z M598.292,194 L605.936,176.92 L605.936,175.324 L593.196,175.324 L593.196,177.396 L603.248,177.396 L595.716,194 L598.292,194 Z" id="February14-17" fill="#FFFFFF"></path>
                <path d="M13.496,53.176 C13.6773333,53.176 13.8426667,53.1653333 13.992,53.144 C15.9333333,52.952 17.832,52.552 19.688,51.944 C21.544,51.336 23.3093333,50.6 24.984,49.736 C26.6586667,48.872 28.2266667,47.9226667 29.688,46.888 C31.1493333,45.8533333 32.4613333,44.808 33.624,43.752 C34.7866667,42.696 35.7786667,41.672 36.6,40.68 C37.4213333,39.688 38.0346667,38.808 38.44,38.04 C38.6106667,37.72 38.7386667,37.4213333 38.824,37.144 C38.9093333,36.8666667 38.9733333,36.6426667 39.016,36.472 C39.0586667,36.0666667 39.0053333,35.7786667 38.856,35.608 C38.7066667,35.4373333 38.5146667,35.352 38.28,35.352 C38.0026667,35.352 37.6933333,35.4746667 37.352,35.72 C37.0106667,35.9653333 36.712,36.28 36.456,36.664 C36.136,37.0906667 35.6346667,37.704 34.952,38.504 C34.2693333,39.304 33.4266667,40.1786667 32.424,41.128 C31.4213333,42.0773333 30.28,43.048 29,44.04 C27.72,45.032 26.3333333,45.928 24.84,46.728 C23.3466667,47.528 21.7626667,48.184 20.088,48.696 C18.4133333,49.208 16.68,49.4533333 14.888,49.432 C12.9253333,49.4106667 11.336,49.128 10.12,48.584 C8.904,48.04 7.96533333,47.368 7.304,46.568 C6.64266667,45.768 6.216,44.9253333 6.024,44.04 C5.832,43.1546667 5.77866667,42.36 5.864,41.656 C6.07733333,40.7813333 6.41333333,39.928 6.872,39.096 C7.33066667,38.264 7.85866667,37.4693333 8.456,36.712 C9.05333333,35.9546667 9.70933333,35.24 10.424,34.568 C11.1386667,33.896 11.8693333,33.2826667 12.616,32.728 C13.2133333,33.0266667 13.8053333,33.2773333 14.392,33.48 C14.9786667,33.6826667 15.5226667,33.8426667 16.024,33.96 C16.5253333,34.0773333 16.9786667,34.1573333 17.384,34.2 C17.7893333,34.2426667 18.12,34.264 18.376,34.264 C19.848,34.2213333 21.1386667,34.0453333 22.248,33.736 C23.3573333,33.4266667 24.2853333,33.048 25.032,32.6 C25.7786667,32.152 26.3546667,31.6506667 26.76,31.096 C27.1653333,30.5413333 27.4106667,29.9866667 27.496,29.432 C27.56,28.92 27.496,28.4346667 27.304,27.976 C27.112,27.5173333 26.7973333,27.1173333 26.36,26.776 C25.9226667,26.4346667 25.3626667,26.168 24.68,25.976 C23.9973333,25.784 23.208,25.6986667 22.312,25.72 C20.52,25.784 18.872,25.992 17.368,26.344 C15.864,26.696 14.4613333,27.1706667 13.16,27.768 C12.4346667,27.0426667 11.8853333,26.136 11.512,25.048 C11.1386667,23.96 11.0586667,22.648 11.272,21.112 C11.3146667,20.8986667 11.3626667,20.6533333 11.416,20.376 C11.4693333,20.0986667 11.528,19.832 11.592,19.576 C12.1466667,17.592 13.032,15.736 14.248,14.008 C15.464,12.28 16.888,10.744 18.52,9.4 C20.152,8.056 21.9226667,6.94666667 23.832,6.072 C25.7413333,5.19733333 27.656,4.632 29.576,4.376 C29.8746667,4.33333333 30.1786667,4.30666667 30.488,4.296 C30.7973333,4.28533333 31.08,4.28 31.336,4.28 C33,4.28 34.3546667,4.52533333 35.4,5.016 C36.4453333,5.50666667 37.256,6.09333333 37.832,6.776 C38.408,7.45866667 38.776,8.17333333 38.936,8.92 C39.096,9.66666667 39.1226667,10.3066667 39.016,10.84 C38.888,11.416 38.648,11.9493333 38.296,12.44 C37.944,12.9306667 37.496,13.352 36.952,13.704 C36.408,14.056 35.7786667,14.328 35.064,14.52 C34.3493333,14.712 33.576,14.808 32.744,14.808 C31.976,14.808 31.128,14.7013333 30.2,14.488 C29.272,14.2746667 28.328,13.9866667 27.368,13.624 C27.176,13.5173333 26.9786667,13.448 26.776,13.416 C26.5733333,13.384 26.3866667,13.368 26.216,13.368 C25.7253333,13.368 25.3093333,13.4906667 24.968,13.736 C24.6266667,13.9813333 24.424,14.3066667 24.36,14.712 C24.3173333,14.9466667 24.3653333,15.208 24.504,15.496 C24.6426667,15.784 24.8293333,16.056 25.064,16.312 C25.256,16.4826667 25.576,16.6693333 26.024,16.872 C26.472,17.0746667 27.0106667,17.2613333 27.64,17.432 C28.2693333,17.6026667 28.9626667,17.7466667 29.72,17.864 C30.4773333,17.9813333 31.2613333,18.04 32.072,18.04 C33.096,18.04 34.1466667,17.9333333 35.224,17.72 C36.3013333,17.5066667 37.3253333,17.1386667 38.296,16.616 C39.2666667,16.0933333 40.1573333,15.384 40.968,14.488 C41.7786667,13.592 42.44,12.4613333 42.952,11.096 C43.0586667,10.8186667 43.144,10.4773333 43.208,10.072 C43.272,9.51733333 43.2666667,8.904 43.192,8.232 C43.1173333,7.56 42.9253333,6.88266667 42.616,6.2 C42.3066667,5.51733333 41.8586667,4.856 41.272,4.216 C40.6853333,3.576 39.9173333,3.00533333 38.968,2.504 C38.0186667,2.00266667 36.8773333,1.59733333 35.544,1.288 C34.2106667,0.978666667 32.6373333,0.824 30.824,0.824 L30.824,0.824 L30.184,0.824 C29.9706667,0.824 29.7466667,0.834666667 29.512,0.856 L29.512,0.856 L29.544,0.856 C27.7946667,0.941333333 26.04,1.26666667 24.28,1.832 C22.52,2.39733333 20.8186667,3.14933333 19.176,4.088 C17.5333333,5.02666667 15.9866667,6.12 14.536,7.368 C13.0853333,8.616 11.7946667,9.944 10.664,11.352 C9.53333333,12.76 8.60533333,14.2213333 7.88,15.736 C7.15466667,17.2506667 6.696,18.744 6.504,20.216 C6.20533333,22.4986667 6.32266667,24.4346667 6.856,26.024 C7.38933333,27.6133333 8.14666667,28.952 9.128,30.04 C7.93333333,30.8933333 6.86666667,31.8053333 5.928,32.776 C4.98933333,33.7466667 4.17333333,34.7173333 3.48,35.688 C2.78666667,36.6586667 2.21066667,37.5973333 1.752,38.504 C1.29333333,39.4106667 0.946666667,40.216 0.712,40.92 C0.626666667,41.1546667 0.557333333,41.4213333 0.504,41.72 C0.450666667,42.0186667 0.402666667,42.2853333 0.36,42.52 C0.189333333,43.8 0.253333333,44.9466667 0.552,45.96 C0.850666667,46.9733333 1.30933333,47.8746667 1.928,48.664 C2.54666667,49.4533333 3.29866667,50.1306667 4.184,50.696 C5.06933333,51.2613333 6.008,51.7306667 7,52.104 C7.992,52.4773333 9.00533333,52.7493333 10.04,52.92 C11.0746667,53.0906667 12.0506667,53.176 12.968,53.176 L12.968,53.176 L13.496,53.176 Z M19.784,30.296 C19.464,30.3386667 19.096,30.3386667 18.68,30.296 C18.264,30.2533333 17.8106667,30.1786667 17.32,30.072 C18.3653333,29.6666667 19.2293333,29.464 19.912,29.464 C21.0853333,29.464 21.9333333,29.4906667 22.456,29.544 C22.9786667,29.5973333 23.2293333,29.656 23.208,29.72 C23.208,29.8266667 22.8933333,29.9333333 22.264,30.04 C21.6346667,30.1466667 20.808,30.232 19.784,30.296 Z M37.928,50.56864 L38.104,50.568 C38.392,50.5573333 38.536,50.4666667 38.536,50.296 C38.5573333,49.976 38.76,49.5653333 39.144,49.064 C39.528,48.5626667 40.0453333,48.0026667 40.696,47.384 C41.3466667,46.7653333 42.088,46.0986667 42.92,45.384 C43.752,44.6693333 44.6266667,43.928 45.544,43.16 C46.504,44.184 47.6133333,45.0106667 48.872,45.64 C50.1306667,46.2693333 51.528,46.5413333 53.064,46.456 C54.024,46.4133333 54.984,46.1733333 55.944,45.736 C56.904,45.2986667 57.832,44.7546667 58.728,44.104 C59.624,43.4533333 60.472,42.7386667 61.272,41.96 C62.072,41.1813333 62.7973333,40.424 63.448,39.688 C64.0986667,38.952 64.664,38.2693333 65.144,37.64 C65.624,37.0106667 65.992,36.5253333 66.248,36.184 L66.248,36.184 L66.6,35.736 C66.9413333,35.3306667 67.1333333,34.9146667 67.176,34.488 C67.24,34.0826667 67.1653333,33.752 66.952,33.496 C66.7386667,33.24 66.4506667,33.112 66.088,33.112 C65.5333333,33.112 64.9573333,33.464 64.36,34.168 C64.2746667,34.2746667 64.1893333,34.3706667 64.104,34.456 L63.976,34.592 L63.976,34.592 L63.848,34.744 L63.88,34.712 C63.5813333,35.0746667 63.2133333,35.528 62.776,36.072 C62.3386667,36.616 61.8426667,37.192 61.288,37.8 C60.7333333,38.408 60.1466667,39.016 59.528,39.624 C58.9093333,40.232 58.2746667,40.7813333 57.624,41.272 C56.9733333,41.7626667 56.3173333,42.1733333 55.656,42.504 C54.9946667,42.8346667 54.3653333,43.0106667 53.768,43.032 C52.552,43.1173333 51.496,42.9626667 50.6,42.568 C49.704,42.1733333 48.9146667,41.6346667 48.232,40.952 C49.448,39.9493333 50.648,38.92 51.832,37.864 C53.016,36.808 54.088,35.768 55.048,34.744 C56.008,33.72 56.8026667,32.7333333 57.432,31.784 C58.0613333,30.8346667 58.4186667,29.9653333 58.504,29.176 C58.5253333,28.984 58.4186667,28.776 58.184,28.552 C57.9493333,28.328 57.6826667,28.1413333 57.384,27.992 C57.0853333,27.8426667 56.8026667,27.7626667 56.536,27.752 C56.2693333,27.7413333 56.1146667,27.864 56.072,28.12 C55.9866667,28.632 55.6666667,29.2453333 55.112,29.96 C54.5573333,30.6746667 53.8426667,31.4533333 52.968,32.296 C52.0933333,33.1386667 51.112,34.024 50.024,34.952 C48.936,35.88 47.8266667,36.8133333 46.696,37.752 C46.6106667,37.8373333 46.4826667,37.944 46.312,38.072 C45.928,37.304 45.6133333,36.5306667 45.368,35.752 C45.1226667,34.9733333 44.9253333,34.2373333 44.776,33.544 C44.6266667,32.8506667 44.5146667,32.2373333 44.44,31.704 C44.3653333,31.1706667 44.3173333,30.7653333 44.296,30.488 C44.296,30.3813333 44.2746667,30.2853333 44.232,30.2 C44.1893333,29.9226667 44.0666667,29.7306667 43.864,29.624 C43.6613333,29.5173333 43.4373333,29.4586667 43.192,29.448 C42.9466667,29.4373333 42.712,29.4693333 42.488,29.544 C42.264,29.6186667 42.1093333,29.6986667 42.024,29.784 C41.576,30.2533333 41.3093333,30.872 41.224,31.64 C41.1386667,32.1946667 41.128,32.8186667 41.192,33.512 C41.256,34.2053333 41.384,34.936 41.576,35.704 C41.768,36.472 42.024,37.256 42.344,38.056 C42.664,38.856 43.048,39.64 43.496,40.408 C42.5146667,41.24 41.576,42.0773333 40.68,42.92 C39.784,43.7626667 38.9893333,44.5786667 38.296,45.368 C37.6026667,46.1573333 37.0373333,46.904 36.6,47.608 C36.1626667,48.312 35.912,48.952 35.848,49.528 C35.8266667,49.72 35.9546667,49.9013333 36.232,50.072 C36.5093333,50.2426667 36.8186667,50.3706667 37.16,50.456 C37.5013333,50.5413333 37.816,50.5786667 38.104,50.568 L37.928,50.56864 Z M72.392,47.096 C73.544,47.1386667 74.6906667,46.9413333 75.832,46.504 C76.9733333,46.0666667 78.0826667,45.4906667 79.16,44.776 C80.2373333,44.0613333 81.2453333,43.2666667 82.184,42.392 C83.1226667,41.5173333 83.9706667,40.6533333 84.728,39.8 C85.4853333,38.9466667 86.1146667,38.1626667 86.616,37.448 C87.1173333,36.7333333 87.464,36.184 87.656,35.8 C87.784,35.5226667 87.8106667,35.2506667 87.736,34.984 C87.6613333,34.7173333 87.5173333,34.5093333 87.304,34.36 C87.0906667,34.2106667 86.8346667,34.1306667 86.536,34.12 C86.2373333,34.1093333 85.9386667,34.2106667 85.64,34.424 C85.5333333,34.488 85.3733333,34.6586667 85.16,34.936 C84.9466667,35.2133333 84.6906667,35.544 84.392,35.928 C83.88,36.632 83.2293333,37.4746667 82.44,38.456 C81.6506667,39.4373333 80.776,40.3866667 79.816,41.304 C78.856,42.2213333 77.8266667,43 76.728,43.64 C75.6293333,44.28 74.5253333,44.6 73.416,44.6 C72.776,44.6 72.2533333,44.472 71.848,44.216 C71.4426667,43.96 71.1333333,43.6506667 70.92,43.288 C70.7066667,42.9253333 70.5733333,42.5466667 70.52,42.152 C70.4666667,41.7573333 70.4613333,41.4213333 70.504,41.144 C70.76,39.5866667 71.2133333,38.2533333 71.864,37.144 C72.5146667,36.0346667 73.224,35.1173333 73.992,34.392 C74.76,33.6666667 75.528,33.1173333 76.296,32.744 C77.064,32.3706667 77.6826667,32.1306667 78.152,32.024 L78.152,32.024 L78.12,32.024 C78.3546667,31.96 78.5306667,32.0506667 78.648,32.296 C78.7653333,32.5413333 78.8026667,32.8773333 78.76,33.304 C78.696,33.752 78.5146667,34.248 78.216,34.792 C77.9173333,35.336 77.4586667,35.8853333 76.84,36.44 C76.392,36.824 76.2693333,37.1653333 76.472,37.464 C76.6746667,37.7626667 77.0746667,37.912 77.672,37.912 C78.0986667,37.912 78.6053333,37.7893333 79.192,37.544 C79.7786667,37.2986667 80.3173333,36.8666667 80.808,36.248 C81.1066667,35.8426667 81.3626667,35.368 81.576,34.824 C81.7893333,34.28 81.9386667,33.7413333 82.024,33.208 C82.088,32.696 82.088,32.1893333 82.024,31.688 C81.96,31.1866667 81.8,30.7386667 81.544,30.344 C81.288,29.9493333 80.9253333,29.6346667 80.456,29.4 C79.9866667,29.1653333 79.3893333,29.048 78.664,29.048 C77.4693333,29.0693333 76.344,29.2933333 75.288,29.72 C74.232,30.1466667 73.256,30.7013333 72.36,31.384 C71.464,32.0666667 70.648,32.8346667 69.912,33.688 C69.176,34.5413333 68.5413333,35.4106667 68.008,36.296 C67.4746667,37.1813333 67.0426667,38.0453333 66.712,38.888 C66.3813333,39.7306667 66.1733333,40.472 66.088,41.112 C66.0026667,42.3706667 66.1946667,43.3893333 66.664,44.168 C67.1333333,44.9466667 67.7146667,45.5546667 68.408,45.992 C69.1013333,46.4293333 69.8213333,46.7226667 70.568,46.872 C71.3146667,47.0213333 71.9226667,47.096 72.392,47.096 Z M93.032,47.16 C94.1413333,47.16 95.2293333,46.9093333 96.296,46.408 C97.3626667,45.9066667 98.376,45.2773333 99.336,44.52 C100.296,43.7626667 101.176,42.936 101.976,42.04 C102.776,41.144 103.474667,40.296 104.072,39.496 C104.669333,38.696 105.149333,38.0133333 105.512,37.448 C105.874667,36.8826667 106.077333,36.5466667 106.12,36.44 C106.376,35.8853333 106.477333,35.448 106.424,35.128 C106.370667,34.808 106.242667,34.584 106.04,34.456 C105.837333,34.328 105.586667,34.28 105.288,34.312 C104.989333,34.344 104.733333,34.424 104.52,34.552 C104.434667,34.5946667 104.312,34.7333333 104.152,34.968 C103.992,35.2026667 103.762667,35.5013333 103.464,35.864 C103.122667,36.312 102.733333,36.8346667 102.296,37.432 C101.858667,38.0293333 101.373333,38.632 100.84,39.24 C100.306667,39.848 99.752,40.4506667 99.176,41.048 C98.6,41.6453333 98.0026667,42.1733333 97.384,42.632 C96.7653333,43.0906667 96.1466667,43.4533333 95.528,43.72 C94.9093333,43.9866667 94.312,44.0986667 93.736,44.056 C93.5013333,44.0346667 93.2293333,43.96 92.92,43.832 C92.6106667,43.704 92.328,43.4746667 92.072,43.144 C91.816,42.8133333 91.624,42.3493333 91.496,41.752 C91.368,41.1546667 91.368,40.376 91.496,39.416 C91.5173333,39.0533333 91.6133333,38.5946667 91.784,38.04 C91.784,37.9546667 91.8053333,37.8906667 91.848,37.848 C92.616,37.1866667 93.48,36.4346667 94.44,35.592 C95.4,34.7493333 96.392,33.832 97.416,32.84 C98.44,31.848 99.4853333,30.7866667 100.552,29.656 C101.618667,28.5253333 102.642667,27.3466667 103.624,26.12 C104.605333,24.8933333 105.522667,23.624 106.376,22.312 C107.229333,21 107.965333,19.6613333 108.584,18.296 C108.690667,17.9973333 108.786667,17.704 108.872,17.416 C108.957333,17.128 109.021333,16.8346667 109.064,16.536 C109.213333,15.576 109.090667,14.8293333 108.696,14.296 C108.301333,13.7626667 107.688,13.496 106.856,13.496 C106.493333,13.496 106.12,13.5493333 105.736,13.656 C104.456,13.9973333 103.16,14.6373333 101.848,15.576 C100.536,16.5146667 99.256,17.6613333 98.008,19.016 C96.76,20.3706667 95.576,21.8746667 94.456,23.528 C93.336,25.1813333 92.328,26.888 91.432,28.648 C90.536,30.408 89.784,32.1573333 89.176,33.896 C88.568,35.6346667 88.1573333,37.272 87.944,38.808 C87.7946667,39.8746667 87.7573333,40.872 87.832,41.8 C87.9066667,42.728 88.104,43.5546667 88.424,44.28 C88.744,45.0053333 89.192,45.6133333 89.768,46.104 C90.344,46.5946667 91.0693333,46.9146667 91.944,47.064 C92.1146667,47.1066667 92.296,47.1333333 92.488,47.144 C92.68,47.1546667 92.8613333,47.16 93.032,47.16 Z M93.48,32.824 C94.248,31.0106667 95.1066667,29.352 96.056,27.848 C97.0053333,26.344 97.9653333,24.9893333 98.936,23.784 C99.9066667,22.5786667 100.845333,21.5066667 101.752,20.568 C102.658667,19.6293333 103.453333,18.808 104.136,18.104 C104.648,17.5493333 105.053333,17.2133333 105.352,17.096 C105.650667,16.9786667 105.778667,17.0373333 105.736,17.272 C105.714667,17.4426667 105.634667,17.6613333 105.496,17.928 C105.357333,18.1946667 105.181333,18.488 104.968,18.808 C102.621333,22.2426667 100.472,25.0906667 98.52,27.352 C96.568,29.6133333 94.888,31.4373333 93.48,32.824 Z M110.76,47.352 C111.805333,47.3733333 112.802667,47.2133333 113.752,46.872 C114.701333,46.5306667 115.602667,46.0613333 116.456,45.464 C116.690667,45.8266667 117,46.1466667 117.384,46.424 C117.768,46.7013333 118.258667,46.8933333 118.856,47 C119.773333,47.0853333 120.754667,46.8933333 121.8,46.424 C122.845333,45.9546667 123.896,45.3466667 124.952,44.6 C126.008,43.8533333 127.026667,43.016 128.008,42.088 C128.989333,41.16 129.869333,40.2586667 130.648,39.384 C131.426667,38.5093333 132.072,37.7306667 132.584,37.048 C133.096,36.3653333 133.405333,35.896 133.512,35.64 C133.768,35.0213333 133.794667,34.5786667 133.592,34.312 C133.389333,34.0453333 133.117333,33.912 132.776,33.912 C132.541333,33.912 132.312,33.9653333 132.088,34.072 C131.864,34.1786667 131.698667,34.3066667 131.592,34.456 C131.528,34.584 131.298667,34.8826667 130.904,35.352 C130.509333,35.8213333 130.018667,36.3813333 129.432,37.032 C128.845333,37.6826667 128.178667,38.376 127.432,39.112 C126.685333,39.848 125.928,40.5253333 125.16,41.144 C124.392,41.7626667 123.629333,42.2853333 122.872,42.712 C122.114667,43.1386667 121.426667,43.3626667 120.808,43.384 C120.701333,43.4053333 120.530667,43.368 120.296,43.272 C120.061333,43.176 119.869333,42.936 119.72,42.552 C120.509333,41.6773333 121.218667,40.7813333 121.848,39.864 C122.477333,38.9466667 123.021333,38.0933333 123.48,37.304 C123.938667,36.5146667 124.306667,35.8426667 124.584,35.288 C124.861333,34.7333333 125.032,34.3706667 125.096,34.2 C125.16,34.0293333 125.218667,33.8586667 125.272,33.688 C125.325333,33.5173333 125.362667,33.336 125.384,33.144 C125.490667,32.3973333 125.346667,31.816 124.952,31.4 C124.557333,30.984 124.050667,30.776 123.432,30.776 C123.005333,30.776 122.573333,30.888 122.136,31.112 C121.698667,31.336 121.298667,31.6613333 120.936,32.088 C119.869333,33.304 119.016,34.472 118.376,35.592 C117.736,36.712 117.24,37.7306667 116.888,38.648 C116.536,39.5653333 116.290667,40.376 116.152,41.08 C116.013333,41.784 115.922667,42.328 115.88,42.712 C115.858667,42.8186667 115.848,42.9306667 115.848,43.048 L115.848,43.048 L115.848,43.416 C115.314667,43.864 114.770667,44.216 114.216,44.472 C113.661333,44.728 113.106667,44.8346667 112.552,44.792 C112.36,44.7706667 112.125333,44.696 111.848,44.568 C111.570667,44.44 111.32,44.2426667 111.096,43.976 C110.872,43.7093333 110.696,43.3626667 110.568,42.936 C110.44,42.5093333 110.418667,41.9866667 110.504,41.368 C110.632,40.4933333 111.032,39.416 111.704,38.136 C112.376,36.856 113.469333,35.3306667 114.984,33.56 C115.197333,33.2826667 115.293333,33.0266667 115.272,32.792 C115.250667,32.5573333 115.138667,32.3546667 114.936,32.184 C114.733333,32.0133333 114.461333,31.88 114.12,31.784 C113.778667,31.688 113.405333,31.64 113,31.64 C112.445333,31.64 111.874667,31.7466667 111.288,31.96 C110.701333,32.1733333 110.205333,32.5253333 109.8,33.016 C108.626667,34.424 107.741333,35.768 107.144,37.048 C106.546667,38.328 106.162667,39.5226667 105.992,40.632 C105.864,41.592 105.896,42.472 106.088,43.272 C106.28,44.072 106.594667,44.76 107.032,45.336 C107.469333,45.912 108.008,46.376 108.648,46.728 C109.288,47.08 109.992,47.288 110.76,47.352 Z M135.144,49.88 C135.72,49.88 136.301333,49.8106667 136.888,49.672 C137.474667,49.5333333 138.04,49.304 138.584,48.984 C139.128,48.664 139.64,48.2373333 140.12,47.704 C140.6,47.1706667 141.010667,46.5093333 141.352,45.72 C141.522667,45.3146667 141.661333,44.792 141.768,44.152 C141.832,43.6613333 141.853333,43.1706667 141.832,42.68 C141.810667,42.1893333 141.757333,41.688 141.672,41.176 C142.546667,40.728 143.458667,40.248 144.408,39.736 C145.357333,39.224 146.285333,38.6853333 147.192,38.12 C148.098667,37.5546667 148.978667,36.9573333 149.832,36.328 C150.685333,35.6986667 151.453333,35.0213333 152.136,34.296 C152.413333,33.976 152.525333,33.6613333 152.472,33.352 C152.418667,33.0426667 152.274667,32.7813333 152.04,32.568 C151.805333,32.3546667 151.528,32.216 151.208,32.152 C150.888,32.088 150.610667,32.1626667 150.376,32.376 C148.882667,33.6986667 147.330667,34.8293333 145.72,35.768 C144.109333,36.7066667 142.536,37.5813333 141,38.392 L141,38.392 L140.456,36.664 C140.242667,36.0453333 140.061333,35.4746667 139.912,34.952 C139.762667,34.4293333 139.677333,33.9866667 139.656,33.624 C139.634667,33.24 139.725333,32.84 139.928,32.424 C140.130667,32.008 140.408,31.624 140.76,31.272 C141.112,30.92 141.522667,30.616 141.992,30.36 C142.461333,30.104 142.973333,29.944 143.528,29.88 C143.784,29.8586667 143.917333,29.7146667 143.928,29.448 C143.938667,29.1813333 143.88,28.888 143.752,28.568 C143.624,28.248 143.437333,27.96 143.192,27.704 C142.946667,27.448 142.696,27.2986667 142.44,27.256 C141.864,27.192 141.192,27.3466667 140.424,27.72 C139.656,28.0933333 138.92,28.632 138.216,29.336 C137.512,30.04 136.904,30.8826667 136.392,31.864 C135.88,32.8453333 135.592,33.912 135.528,35.064 C135.485333,35.6826667 135.549333,36.3706667 135.72,37.128 C135.890667,37.8853333 136.093333,38.6266667 136.328,39.352 L136.328,39.352 L136.68,40.76 C135.421333,41.5066667 134.365333,42.2693333 133.512,43.048 C132.658667,43.8266667 132.082667,44.696 131.784,45.656 C131.72,45.9333333 131.677333,46.28 131.656,46.696 C131.634667,47.112 131.677333,47.5333333 131.784,47.96 C131.890667,48.3866667 132.109333,48.7706667 132.44,49.112 C132.770667,49.4533333 133.256,49.6773333 133.896,49.784 C134.28,49.848 134.696,49.88 135.144,49.88 Z M135.112,47.416 C134.834667,47.416 134.626667,47.2826667 134.488,47.016 C134.349333,46.7493333 134.354667,46.4026667 134.504,45.976 C134.610667,45.592 134.898667,45.2026667 135.368,44.808 C135.837333,44.4133333 136.424,44.0026667 137.128,43.576 C137.128,44.0666667 137.064,44.5466667 136.936,45.016 C136.701333,45.8906667 136.413333,46.5093333 136.072,46.872 C135.730667,47.2346667 135.410667,47.416 135.112,47.416 Z M157.128,30.104 C157.704,30.2746667 158.264,30.28 158.808,30.12 C159.352,29.96 159.864,29.704 160.344,29.352 C160.824,29 161.266667,28.5733333 161.672,28.072 C162.077333,27.5706667 162.429333,27.0426667 162.728,26.488 C162.770667,26.36 162.84,26.152 162.936,25.864 C163.032,25.576 163.101333,25.272 163.144,24.952 C163.186667,24.6746667 163.202667,24.3866667 163.192,24.088 C163.181333,23.7893333 163.133333,23.5066667 163.048,23.24 C162.962667,22.9733333 162.824,22.7226667 162.632,22.488 C162.44,22.2533333 162.173333,22.072 161.832,21.944 C161.448,21.7946667 161.010667,21.7786667 160.52,21.896 C160.029333,22.0133333 159.538667,22.2106667 159.048,22.488 C158.557333,22.7653333 158.104,23.112 157.688,23.528 C157.272,23.944 156.936,24.3866667 156.68,24.856 C156.530667,25.112 156.477333,25.3573333 156.52,25.592 C156.562667,25.8266667 156.669333,26.0293333 156.84,26.2 C156.669333,26.264 156.514667,26.376 156.376,26.536 C156.237333,26.696 156.125333,26.904 156.04,27.16 L156.04,27.16 L156.072,27.16 C156.008,27.2666667 155.949333,27.4533333 155.896,27.72 C155.842667,27.9866667 155.832,28.2693333 155.864,28.568 C155.896,28.8666667 156.002667,29.1546667 156.184,29.432 C156.365333,29.7093333 156.68,29.9226667 157.128,30.072 L157.128,30.072 L157.128,30.104 Z M158.54688,27.58304 L158.504,27.576 C158.248,27.4693333 158.104,27.336 158.072,27.176 C158.04,27.016 158.045333,26.872 158.088,26.744 L158.088,26.744 L158.12,26.584 L158.472,26.264 C158.706667,26.0506667 158.984,25.816 159.304,25.56 C159.624,25.304 159.869333,25.1973333 160.04,25.24 C160.296,25.304 160.418667,25.4053333 160.408,25.544 C160.397333,25.6826667 160.370667,25.8053333 160.328,25.912 L160.328,25.912 L160.328,25.88 C160.2,26.1573333 160.04,26.408 159.848,26.632 C159.656,26.856 159.469333,27.0373333 159.288,27.176 C159.106667,27.3146667 158.946667,27.4213333 158.808,27.496 C158.669333,27.5706667 158.568,27.5973333 158.504,27.576 L158.54688,27.58304 Z M153.544,47.064 C154.312,47.064 155.122667,46.8933333 155.976,46.552 C156.829333,46.2106667 157.682667,45.768 158.536,45.224 C159.389333,44.68 160.221333,44.072 161.032,43.4 C161.842667,42.728 162.589333,42.0613333 163.272,41.4 C163.954667,40.7386667 164.552,40.1146667 165.064,39.528 C165.576,38.9413333 165.96,38.4666667 166.216,38.104 C166.642667,37.336 166.834667,36.76 166.792,36.376 C166.749333,35.992 166.589333,35.7573333 166.312,35.672 C166.034667,35.5866667 165.698667,35.6293333 165.304,35.8 C164.909333,35.9706667 164.584,36.216 164.328,36.536 C164.2,36.7066667 163.949333,37.0053333 163.576,37.432 C163.202667,37.8586667 162.738667,38.3546667 162.184,38.92 C161.629333,39.4853333 161.010667,40.072 160.328,40.68 C159.645333,41.288 158.952,41.848 158.248,42.36 C157.544,42.872 156.834667,43.2933333 156.12,43.624 C155.405333,43.9546667 154.749333,44.12 154.152,44.12 C153.832,44.12 153.581333,43.9493333 153.4,43.608 C153.218667,43.2666667 153.224,42.648 153.416,41.752 C153.522667,41.304 153.704,40.7973333 153.96,40.232 C154.216,39.6666667 154.504,39.08 154.824,38.472 C155.144,37.864 155.490667,37.2613333 155.864,36.664 C156.237333,36.0666667 156.584,35.5013333 156.904,34.968 C157.330667,34.2853333 157.688,33.6933333 157.976,33.192 C158.264,32.6906667 158.429333,32.3226667 158.472,32.088 C158.536,31.7253333 158.408,31.4533333 158.088,31.272 C157.768,31.0906667 157.352,31 156.84,31 C156.52,31 156.189333,31.0266667 155.848,31.08 C155.506667,31.1333333 155.176,31.2133333 154.856,31.32 C154.536,31.4266667 154.242667,31.5546667 153.976,31.704 C153.709333,31.8533333 153.501333,32.024 153.352,32.216 C153.032,32.6853333 152.658667,33.3146667 152.232,34.104 C151.805333,34.8933333 151.378667,35.768 150.952,36.728 C150.525333,37.688 150.136,38.6746667 149.784,39.688 C149.432,40.7013333 149.192,41.6666667 149.064,42.584 C149.021333,43.416 149.122667,44.12 149.368,44.696 C149.613333,45.272 149.944,45.736 150.36,46.088 C150.776,46.44 151.261333,46.6906667 151.816,46.84 C152.370667,46.9893333 152.946667,47.064 153.544,47.064 Z M171.592,47 C173.469333,46.9573333 175.213333,46.4453333 176.824,45.464 C178.434667,44.4826667 179.816,43.0853333 180.968,41.272 C181.672,41.528 182.386667,41.656 183.112,41.656 C184.541333,41.656 185.832,41.384 186.984,40.84 C188.136,40.296 189.112,39.6506667 189.912,38.904 C190.712,38.1573333 191.314667,37.4 191.72,36.632 C192.125333,35.864 192.317333,35.2666667 192.296,34.84 C192.253333,34.5413333 192.088,34.3013333 191.8,34.12 C191.512,33.9386667 191.186667,33.848 190.824,33.848 C190.504,33.848 190.194667,33.9333333 189.896,34.104 C189.597333,34.2746667 189.394667,34.5413333 189.288,34.904 C189.096,35.4586667 188.813333,35.9866667 188.44,36.488 C188.066667,36.9893333 187.64,37.432 187.16,37.816 C186.68,38.2 186.173333,38.5093333 185.64,38.744 C185.106667,38.9786667 184.584,39.096 184.072,39.096 C183.453333,39.096 182.877333,38.9253333 182.344,38.584 C182.536,38.1573333 182.706667,37.7306667 182.856,37.304 C183.005333,36.8773333 183.144,36.4293333 183.272,35.96 C183.421333,35.4266667 183.48,34.8506667 183.448,34.232 C183.416,33.6133333 183.293333,33.064 183.08,32.584 C182.866667,32.104 182.568,31.736 182.184,31.48 C181.8,31.224 181.32,31.1813333 180.744,31.352 L180.744,31.352 L180.776,31.352 C179.88,31.6506667 179.181333,32.2266667 178.68,33.08 C178.178667,33.9333333 177.864,34.84 177.736,35.8 C177.672,36.2266667 177.64,36.6426667 177.64,37.048 C177.661333,37.688 177.810667,38.2746667 178.088,38.808 C177.704,39.384 177.282667,39.9866667 176.824,40.616 C176.365333,41.2453333 175.890667,41.8266667 175.4,42.36 C174.909333,42.8933333 174.402667,43.3306667 173.88,43.672 C173.357333,44.0133333 172.850667,44.1946667 172.36,44.216 C172.04,44.216 171.784,44.12 171.592,43.928 C171.4,43.736 171.261333,43.464 171.176,43.112 C171.090667,42.76 171.048,42.344 171.048,41.864 C171.048,41.384 171.090667,40.8666667 171.176,40.312 C171.282667,39.5226667 171.458667,38.696 171.704,37.832 C171.949333,36.968 172.237333,36.136 172.568,35.336 C172.898667,34.536 173.261333,33.8 173.656,33.128 C174.050667,32.456 174.461333,31.9066667 174.888,31.48 L174.888,31.48 L174.888,31.512 C175.122667,31.2986667 175.245333,31.1066667 175.256,30.936 C175.266667,30.7653333 175.192,30.616 175.032,30.488 C174.872,30.36 174.648,30.264 174.36,30.2 C174.072,30.136 173.757333,30.104 173.416,30.104 C172.925333,30.104 172.418667,30.1733333 171.896,30.312 C171.373333,30.4506667 170.962667,30.68 170.664,31 C169.448,32.1733333 168.509333,33.4533333 167.848,34.84 C167.186667,36.2266667 166.76,37.592 166.568,38.936 C166.418667,40.024 166.413333,41.0586667 166.552,42.04 C166.690667,43.0213333 166.973333,43.88 167.4,44.616 C167.826667,45.352 168.392,45.9333333 169.096,46.36 C169.8,46.7866667 170.632,47 171.592,47 Z M197.64,47.352 C198.984,47.288 200.290667,46.9893333 201.56,46.456 C202.829333,45.9226667 204.029333,45.2613333 205.16,44.472 C206.290667,43.6826667 207.325333,42.8346667 208.264,41.928 C209.202667,41.0213333 210.024,40.168 210.728,39.368 C211.432,38.568 211.986667,37.8906667 212.392,37.336 C212.797333,36.7813333 213.021333,36.4506667 213.064,36.344 C213.384,35.6613333 213.421333,35.16 213.176,34.84 C212.930667,34.52 212.594667,34.36 212.168,34.36 C211.890667,34.36 211.592,34.4613333 211.272,34.664 C210.952,34.8666667 210.706667,35.1066667 210.536,35.384 C210.429333,35.5546667 210.189333,35.8853333 209.816,36.376 C209.442667,36.8666667 208.973333,37.4426667 208.408,38.104 C207.842667,38.7653333 207.197333,39.464 206.472,40.2 C205.746667,40.936 204.984,41.6133333 204.184,42.232 C203.384,42.8506667 202.562667,43.3733333 201.72,43.8 C200.877333,44.2266667 200.050667,44.4613333 199.24,44.504 C198.792,44.5466667 198.386667,44.504 198.024,44.376 C197.661333,44.248 197.357333,44.0293333 197.112,43.72 C196.866667,43.4106667 196.685333,43 196.568,42.488 C196.450667,41.976 196.413333,41.3466667 196.456,40.6 C197.309333,40.408 198.232,40.12 199.224,39.736 C200.216,39.352 201.165333,38.8613333 202.072,38.264 C202.978667,37.6666667 203.8,36.9466667 204.536,36.104 C205.272,35.2613333 205.8,34.2853333 206.12,33.176 C206.162667,32.8773333 206.162667,32.5093333 206.12,32.072 C206.077333,31.6346667 205.949333,31.2133333 205.736,30.808 C205.522667,30.4026667 205.202667,30.0613333 204.776,29.784 C204.349333,29.5066667 203.773333,29.368 203.048,29.368 C201.981333,29.3893333 200.989333,29.5866667 200.072,29.96 C199.154667,30.3333333 198.312,30.8186667 197.544,31.416 C196.776,32.0133333 196.082667,32.6853333 195.464,33.432 C194.845333,34.1786667 194.306667,34.936 193.848,35.704 C193.389333,36.472 193.010667,37.224 192.712,37.96 C192.413333,38.696 192.189333,39.3306667 192.04,39.864 C191.741333,41.1866667 191.752,42.3173333 192.072,43.256 C192.392,44.1946667 192.866667,44.968 193.496,45.576 C194.125333,46.184 194.818667,46.6266667 195.576,46.904 C196.333333,47.1813333 197.021333,47.3306667 197.64,47.352 Z M197.032,37.944 C197.309333,37.2826667 197.650667,36.6053333 198.056,35.912 C198.461333,35.2186667 198.888,34.5893333 199.336,34.024 C199.784,33.4586667 200.237333,32.9893333 200.696,32.616 C201.154667,32.2426667 201.565333,32.0453333 201.928,32.024 C202.162667,32.0026667 202.322667,32.1093333 202.408,32.344 C202.493333,32.5786667 202.461333,32.9306667 202.312,33.4 C202.056,34.1253333 201.725333,34.7493333 201.32,35.272 C200.914667,35.7946667 200.477333,36.232 200.008,36.584 C199.538667,36.936 199.048,37.2186667 198.536,37.432 C198.024,37.6453333 197.522667,37.816 197.032,37.944 Z M228.304,53.112 C228.56,53.112 228.848,53.0746667 229.168,53 C229.488,52.9253333 229.776,52.8346667 230.032,52.728 C230.16,52.6213333 230.362667,52.3173333 230.64,51.816 C230.917333,51.3146667 231.264,50.6586667 231.68,49.848 C232.096,49.0373333 232.570667,48.104 233.104,47.048 C233.637333,45.992 234.202667,44.8453333 234.8,43.608 C235.290667,43.672 235.813333,43.72 236.368,43.752 C236.922667,43.784 237.509333,43.7893333 238.128,43.768 C239.109333,43.7466667 240.266667,43.5813333 241.6,43.272 C242.933333,42.9626667 244.368,42.488 245.904,41.848 C247.44,41.208 249.061333,40.392 250.768,39.4 C252.474667,38.408 254.192,37.2026667 255.92,35.784 C257.648,34.3653333 259.365333,32.728 261.072,30.872 C262.778667,29.016 264.410667,26.9146667 265.968,24.568 C266.309333,24.0346667 266.666667,23.3946667 267.04,22.648 C267.413333,21.9013333 267.765333,21.0746667 268.096,20.168 C268.426667,19.2613333 268.730667,18.3066667 269.008,17.304 C269.285333,16.3013333 269.498667,15.2773333 269.648,14.232 C269.882667,12.632 269.909333,11.048 269.728,9.48 C269.546667,7.912 269.04,6.52 268.208,5.304 C267.376,4.088 266.154667,3.112 264.544,2.376 C262.933333,1.64 260.816,1.29333333 258.192,1.336 C256.570667,1.35733333 255.04,1.512 253.6,1.8 C252.16,2.088 250.816,2.45066667 249.568,2.888 C248.32,3.32533333 247.173333,3.816 246.128,4.36 C245.082667,4.904 244.16,5.44266667 243.36,5.976 C242.56,6.50933333 241.882667,7.01066667 241.328,7.48 C240.773333,7.94933333 240.357333,8.32266667 240.08,8.6 C239.44,9.368 239.088,10.0186667 239.024,10.552 C238.96,11 239.045333,11.32 239.28,11.512 C239.514667,11.704 239.866667,11.7146667 240.336,11.544 C240.613333,11.4373333 240.997333,11.1706667 241.488,10.744 C241.957333,10.3386667 242.592,9.832 243.392,9.224 C244.192,8.616 245.216,8.008 246.464,7.4 C247.712,6.792 249.221333,6.24266667 250.992,5.752 C252.762667,5.26133333 254.853333,4.92 257.264,4.728 C257.584,4.70666667 258.037333,4.72266667 258.624,4.776 C259.210667,4.82933333 259.834667,4.95733333 260.496,5.16 C261.157333,5.36266667 261.824,5.66666667 262.496,6.072 C263.168,6.47733333 263.749333,7.02133333 264.24,7.704 C264.730667,8.38666667 265.093333,9.224 265.328,10.216 C265.562667,11.208 265.584,12.3866667 265.392,13.752 C265.2,15.096 264.773333,16.616 264.112,18.312 C263.450667,20.008 262.48,21.9546667 261.2,24.152 L261.2,24.152 L261.2,24.12 C260.837333,24.7386667 260.293333,25.5386667 259.568,26.52 C258.842667,27.5013333 257.968,28.552 256.944,29.672 C255.92,30.792 254.757333,31.9333333 253.456,33.096 C252.154667,34.2586667 250.757333,35.336 249.264,36.328 C247.770667,37.32 246.192,38.1733333 244.528,38.888 C242.864,39.6026667 241.146667,40.0666667 239.376,40.28 C239.077333,40.3226667 238.762667,40.3493333 238.432,40.36 C238.101333,40.3706667 237.797333,40.376 237.52,40.376 L237.52,40.376 L236.912,40.376 C236.72,40.376 236.528,40.3653333 236.336,40.344 C237.168,38.5733333 238.026667,36.744 238.912,34.856 C239.797333,32.968 240.656,31.1226667 241.488,29.32 C242.32,27.5173333 243.104,25.8053333 243.84,24.184 C244.576,22.5626667 245.226667,21.1333333 245.792,19.896 C246.357333,18.6586667 246.810667,17.656 247.152,16.888 C247.493333,16.12 247.674667,15.6933333 247.696,15.608 C247.824,15.1813333 247.856,14.824 247.792,14.536 C247.728,14.248 247.594667,14.0133333 247.392,13.832 C247.189333,13.6506667 246.944,13.5226667 246.656,13.448 C246.368,13.3733333 246.064,13.336 245.744,13.336 C245.253333,13.336 244.789333,13.432 244.352,13.624 C243.914667,13.816 243.632,14.0613333 243.504,14.36 L243.504,14.36 L243.504,14.392 L241.84,18.072 C241.242667,19.3733333 240.56,20.8666667 239.792,22.552 C239.024,24.2373333 238.218667,26.0133333 237.376,27.88 C236.533333,29.7466667 235.669333,31.6613333 234.784,33.624 C233.898667,35.5866667 233.050667,37.4853333 232.24,39.32 C231.002667,38.744 230.010667,38.0186667 229.264,37.144 C228.517333,36.2693333 227.952,35.384 227.568,34.488 C227.184,33.592 226.938667,32.76 226.832,31.992 C226.725333,31.224 226.693333,30.6693333 226.736,30.328 C226.8,29.7093333 226.672,29.2293333 226.352,28.888 C226.032,28.5466667 225.669333,28.376 225.264,28.376 C224.901333,28.376 224.581333,28.5093333 224.304,28.776 C224.026667,29.0426667 223.845333,29.4426667 223.76,29.976 C223.738667,30.232 223.728,30.648 223.728,31.224 C223.728,31.8 223.792,32.4666667 223.92,33.224 C224.048,33.9813333 224.256,34.7973333 224.544,35.672 C224.832,36.5466667 225.242667,37.4106667 225.776,38.264 C226.309333,39.1173333 226.986667,39.9173333 227.808,40.664 C228.629333,41.4106667 229.637333,42.04 230.832,42.552 C230.213333,43.9386667 229.648,45.224 229.136,46.408 C228.624,47.592 228.181333,48.6213333 227.808,49.496 C227.434667,50.3706667 227.146667,51.0693333 226.944,51.592 C226.741333,52.1146667 226.650667,52.408 226.672,52.472 C226.778667,52.6853333 226.976,52.8453333 227.264,52.952 C227.552,53.0586667 227.898667,53.112 228.304,53.112 Z M268.048,48.888 C269.029333,49.0373333 270.069333,48.872 271.168,48.392 C272.266667,47.912 273.354667,47.2506667 274.432,46.408 C275.509333,45.5653333 276.544,44.6106667 277.536,43.544 C278.528,42.4773333 279.408,41.4426667 280.176,40.44 C280.944,39.4373333 281.562667,38.5413333 282.032,37.752 C282.501333,36.9626667 282.768,36.4186667 282.832,36.12 C282.768,35.8213333 282.64,35.5813333 282.448,35.4 C282.256,35.2186667 282.042667,35.1066667 281.808,35.064 C281.573333,35.0213333 281.344,35.0533333 281.12,35.16 C280.896,35.2666667 280.730667,35.4586667 280.624,35.736 C280.538667,35.9493333 280.309333,36.344 279.936,36.92 C279.562667,37.496 279.088,38.1626667 278.512,38.92 C277.936,39.6773333 277.296,40.4613333 276.592,41.272 C275.888,42.0826667 275.168,42.8293333 274.432,43.512 C273.696,44.1946667 272.965333,44.7546667 272.24,45.192 C271.514667,45.6293333 270.853333,45.8373333 270.256,45.816 C270.149333,45.816 270.026667,45.7893333 269.888,45.736 C269.749333,45.6826667 269.626667,45.592 269.52,45.464 C269.413333,45.336 269.333333,45.16 269.28,44.936 C269.226667,44.712 269.221333,44.44 269.264,44.12 C269.306667,43.7786667 269.418667,43.3733333 269.6,42.904 C269.781333,42.4346667 270.053333,41.896 270.416,41.288 C270.778667,40.68 271.237333,39.9866667 271.792,39.208 C272.346667,38.4293333 273.029333,37.56 273.84,36.6 L273.84,36.6 L273.84,36.632 C273.946667,36.5253333 273.978667,36.2746667 273.936,35.88 C273.893333,35.4853333 273.802667,35.0746667 273.664,34.648 C273.525333,34.2213333 273.344,33.848 273.12,33.528 C272.896,33.208 272.645333,33.08 272.368,33.144 C272.282667,33.1653333 272.106667,33.224 271.84,33.32 C271.573333,33.416 271.290667,33.5173333 270.992,33.624 C270.693333,33.752 270.357333,33.8906667 269.984,34.04 C269.610667,34.1893333 269.221333,34.3173333 268.816,34.424 C269.029333,34.0613333 269.226667,33.6613333 269.408,33.224 C269.589333,32.7866667 269.733333,32.3013333 269.84,31.768 C270.074667,30.5093333 269.936,29.544 269.424,28.872 C268.912,28.2 268.026667,27.9493333 266.768,28.12 L266.768,28.12 L266.736,28.12 C266.053333,28.2053333 265.434667,28.4666667 264.88,28.904 C264.325333,29.3413333 263.845333,29.8426667 263.44,30.408 C263.034667,30.9733333 262.704,31.56 262.448,32.168 C262.192,32.776 262.032,33.304 261.968,33.752 C261.925333,34.5626667 262,35.2453333 262.192,35.8 C262.384,36.3546667 262.656,36.8026667 263.008,37.144 C263.36,37.4853333 263.765333,37.7253333 264.224,37.864 C264.682667,38.0026667 265.146667,38.072 265.616,38.072 C266.277333,38.072 266.874667,37.9973333 267.408,37.848 C267.941333,37.6986667 268.314667,37.5493333 268.528,37.4 L268.528,37.4 L268.592,37.336 C268.613333,37.3146667 268.634667,37.304 268.656,37.304 C267.525333,38.456 266.656,39.6026667 266.048,40.744 C265.44,41.8853333 265.061333,42.968 264.912,43.992 C264.72,45.2933333 264.890667,46.3866667 265.424,47.272 C265.957333,48.1573333 266.832,48.696 268.048,48.888 Z M264.976,34.904 C264.869333,34.84 264.816,34.7546667 264.816,34.648 C264.773333,34.52 264.741333,34.3653333 264.72,34.184 C264.698667,34.0026667 264.709333,33.7946667 264.752,33.56 C264.794667,33.2826667 264.890667,32.9733333 265.04,32.632 C265.189333,32.2906667 265.456,31.896 265.84,31.448 L265.84,31.448 L265.84,31.48 C266.16,31.1173333 266.373333,30.936 266.48,30.936 C266.565333,30.936 266.602667,31.0266667 266.592,31.208 C266.581333,31.3893333 266.533333,31.6293333 266.448,31.928 C266.277333,32.6106667 266.053333,33.192 265.776,33.672 C265.498667,34.152 265.232,34.5626667 264.976,34.904 Z M284.496,47.352 C285.84,47.288 287.146667,46.9893333 288.416,46.456 C289.685333,45.9226667 290.885333,45.2613333 292.016,44.472 C293.146667,43.6826667 294.181333,42.8346667 295.12,41.928 C296.058667,41.0213333 296.88,40.168 297.584,39.368 C298.288,38.568 298.842667,37.8906667 299.248,37.336 C299.653333,36.7813333 299.877333,36.4506667 299.92,36.344 C300.24,35.6613333 300.277333,35.16 300.032,34.84 C299.786667,34.52 299.450667,34.36 299.024,34.36 C298.746667,34.36 298.448,34.4613333 298.128,34.664 C297.808,34.8666667 297.562667,35.1066667 297.392,35.384 C297.285333,35.5546667 297.045333,35.8853333 296.672,36.376 C296.298667,36.8666667 295.829333,37.4426667 295.264,38.104 C294.698667,38.7653333 294.053333,39.464 293.328,40.2 C292.602667,40.936 291.84,41.6133333 291.04,42.232 C290.24,42.8506667 289.418667,43.3733333 288.576,43.8 C287.733333,44.2266667 286.906667,44.4613333 286.096,44.504 C285.648,44.5466667 285.242667,44.504 284.88,44.376 C284.517333,44.248 284.213333,44.0293333 283.968,43.72 C283.722667,43.4106667 283.541333,43 283.424,42.488 C283.306667,41.976 283.269333,41.3466667 283.312,40.6 C284.165333,40.408 285.088,40.12 286.08,39.736 C287.072,39.352 288.021333,38.8613333 288.928,38.264 C289.834667,37.6666667 290.656,36.9466667 291.392,36.104 C292.128,35.2613333 292.656,34.2853333 292.976,33.176 C293.018667,32.8773333 293.018667,32.5093333 292.976,32.072 C292.933333,31.6346667 292.805333,31.2133333 292.592,30.808 C292.378667,30.4026667 292.058667,30.0613333 291.632,29.784 C291.205333,29.5066667 290.629333,29.368 289.904,29.368 C288.837333,29.3893333 287.845333,29.5866667 286.928,29.96 C286.010667,30.3333333 285.168,30.8186667 284.4,31.416 C283.632,32.0133333 282.938667,32.6853333 282.32,33.432 C281.701333,34.1786667 281.162667,34.936 280.704,35.704 C280.245333,36.472 279.866667,37.224 279.568,37.96 C279.269333,38.696 279.045333,39.3306667 278.896,39.864 C278.597333,41.1866667 278.608,42.3173333 278.928,43.256 C279.248,44.1946667 279.722667,44.968 280.352,45.576 C280.981333,46.184 281.674667,46.6266667 282.432,46.904 C283.189333,47.1813333 283.877333,47.3306667 284.496,47.352 Z M283.888,37.944 C284.165333,37.2826667 284.506667,36.6053333 284.912,35.912 C285.317333,35.2186667 285.744,34.5893333 286.192,34.024 C286.64,33.4586667 287.093333,32.9893333 287.552,32.616 C288.010667,32.2426667 288.421333,32.0453333 288.784,32.024 C289.018667,32.0026667 289.178667,32.1093333 289.264,32.344 C289.349333,32.5786667 289.317333,32.9306667 289.168,33.4 C288.912,34.1253333 288.581333,34.7493333 288.176,35.272 C287.770667,35.7946667 287.333333,36.232 286.864,36.584 C286.394667,36.936 285.904,37.2186667 285.392,37.432 C284.88,37.6453333 284.378667,37.816 283.888,37.944 Z M300.4,47 C302.277333,46.9573333 304.021333,46.4453333 305.632,45.464 C307.242667,44.4826667 308.624,43.0853333 309.776,41.272 C310.48,41.528 311.194667,41.656 311.92,41.656 C313.349333,41.656 314.64,41.384 315.792,40.84 C316.944,40.296 317.92,39.6506667 318.72,38.904 C319.52,38.1573333 320.122667,37.4 320.528,36.632 C320.933333,35.864 321.125333,35.2666667 321.104,34.84 C321.061333,34.5413333 320.896,34.3013333 320.608,34.12 C320.32,33.9386667 319.994667,33.848 319.632,33.848 C319.312,33.848 319.002667,33.9333333 318.704,34.104 C318.405333,34.2746667 318.202667,34.5413333 318.096,34.904 C317.904,35.4586667 317.621333,35.9866667 317.248,36.488 C316.874667,36.9893333 316.448,37.432 315.968,37.816 C315.488,38.2 314.981333,38.5093333 314.448,38.744 C313.914667,38.9786667 313.392,39.096 312.88,39.096 C312.261333,39.096 311.685333,38.9253333 311.152,38.584 C311.344,38.1573333 311.514667,37.7306667 311.664,37.304 C311.813333,36.8773333 311.952,36.4293333 312.08,35.96 C312.229333,35.4266667 312.288,34.8506667 312.256,34.232 C312.224,33.6133333 312.101333,33.064 311.888,32.584 C311.674667,32.104 311.376,31.736 310.992,31.48 C310.608,31.224 310.128,31.1813333 309.552,31.352 L309.552,31.352 L309.584,31.352 C308.688,31.6506667 307.989333,32.2266667 307.488,33.08 C306.986667,33.9333333 306.672,34.84 306.544,35.8 C306.48,36.2266667 306.448,36.6426667 306.448,37.048 C306.469333,37.688 306.618667,38.2746667 306.896,38.808 C306.512,39.384 306.090667,39.9866667 305.632,40.616 C305.173333,41.2453333 304.698667,41.8266667 304.208,42.36 C303.717333,42.8933333 303.210667,43.3306667 302.688,43.672 C302.165333,44.0133333 301.658667,44.1946667 301.168,44.216 C300.848,44.216 300.592,44.12 300.4,43.928 C300.208,43.736 300.069333,43.464 299.984,43.112 C299.898667,42.76 299.856,42.344 299.856,41.864 C299.856,41.384 299.898667,40.8666667 299.984,40.312 C300.090667,39.5226667 300.266667,38.696 300.512,37.832 C300.757333,36.968 301.045333,36.136 301.376,35.336 C301.706667,34.536 302.069333,33.8 302.464,33.128 C302.858667,32.456 303.269333,31.9066667 303.696,31.48 L303.696,31.48 L303.696,31.512 C303.930667,31.2986667 304.053333,31.1066667 304.064,30.936 C304.074667,30.7653333 304,30.616 303.84,30.488 C303.68,30.36 303.456,30.264 303.168,30.2 C302.88,30.136 302.565333,30.104 302.224,30.104 C301.733333,30.104 301.226667,30.1733333 300.704,30.312 C300.181333,30.4506667 299.770667,30.68 299.472,31 C298.256,32.1733333 297.317333,33.4533333 296.656,34.84 C295.994667,36.2266667 295.568,37.592 295.376,38.936 C295.226667,40.024 295.221333,41.0586667 295.36,42.04 C295.498667,43.0213333 295.781333,43.88 296.208,44.616 C296.634667,45.352 297.2,45.9333333 297.904,46.36 C298.608,46.7866667 299.44,47 300.4,47 Z M323.6,30.104 C324.176,30.2746667 324.736,30.28 325.28,30.12 C325.824,29.96 326.336,29.704 326.816,29.352 C327.296,29 327.738667,28.5733333 328.144,28.072 C328.549333,27.5706667 328.901333,27.0426667 329.2,26.488 C329.242667,26.36 329.312,26.152 329.408,25.864 C329.504,25.576 329.573333,25.272 329.616,24.952 C329.658667,24.6746667 329.674667,24.3866667 329.664,24.088 C329.653333,23.7893333 329.605333,23.5066667 329.52,23.24 C329.434667,22.9733333 329.296,22.7226667 329.104,22.488 C328.912,22.2533333 328.645333,22.072 328.304,21.944 C327.92,21.7946667 327.482667,21.7786667 326.992,21.896 C326.501333,22.0133333 326.010667,22.2106667 325.52,22.488 C325.029333,22.7653333 324.576,23.112 324.16,23.528 C323.744,23.944 323.408,24.3866667 323.152,24.856 C323.002667,25.112 322.949333,25.3573333 322.992,25.592 C323.034667,25.8266667 323.141333,26.0293333 323.312,26.2 C323.141333,26.264 322.986667,26.376 322.848,26.536 C322.709333,26.696 322.597333,26.904 322.512,27.16 L322.512,27.16 L322.544,27.16 C322.48,27.2666667 322.421333,27.4533333 322.368,27.72 C322.314667,27.9866667 322.304,28.2693333 322.336,28.568 C322.368,28.8666667 322.474667,29.1546667 322.656,29.432 C322.837333,29.7093333 323.152,29.9226667 323.6,30.072 L323.6,30.072 L323.6,30.104 Z M325.01888,27.58304 L324.976,27.576 C324.72,27.4693333 324.576,27.336 324.544,27.176 C324.512,27.016 324.517333,26.872 324.56,26.744 L324.56,26.744 L324.592,26.584 L324.944,26.264 C325.178667,26.0506667 325.456,25.816 325.776,25.56 C326.096,25.304 326.341333,25.1973333 326.512,25.24 C326.768,25.304 326.890667,25.4053333 326.88,25.544 C326.869333,25.6826667 326.842667,25.8053333 326.8,25.912 L326.8,25.912 L326.8,25.88 C326.672,26.1573333 326.512,26.408 326.32,26.632 C326.128,26.856 325.941333,27.0373333 325.76,27.176 C325.578667,27.3146667 325.418667,27.4213333 325.28,27.496 C325.141333,27.5706667 325.04,27.5973333 324.976,27.576 L325.01888,27.58304 Z M320.016,47.064 C320.784,47.064 321.594667,46.8933333 322.448,46.552 C323.301333,46.2106667 324.154667,45.768 325.008,45.224 C325.861333,44.68 326.693333,44.072 327.504,43.4 C328.314667,42.728 329.061333,42.0613333 329.744,41.4 C330.426667,40.7386667 331.024,40.1146667 331.536,39.528 C332.048,38.9413333 332.432,38.4666667 332.688,38.104 C333.114667,37.336 333.306667,36.76 333.264,36.376 C333.221333,35.992 333.061333,35.7573333 332.784,35.672 C332.506667,35.5866667 332.170667,35.6293333 331.776,35.8 C331.381333,35.9706667 331.056,36.216 330.8,36.536 C330.672,36.7066667 330.421333,37.0053333 330.048,37.432 C329.674667,37.8586667 329.210667,38.3546667 328.656,38.92 C328.101333,39.4853333 327.482667,40.072 326.8,40.68 C326.117333,41.288 325.424,41.848 324.72,42.36 C324.016,42.872 323.306667,43.2933333 322.592,43.624 C321.877333,43.9546667 321.221333,44.12 320.624,44.12 C320.304,44.12 320.053333,43.9493333 319.872,43.608 C319.690667,43.2666667 319.696,42.648 319.888,41.752 C319.994667,41.304 320.176,40.7973333 320.432,40.232 C320.688,39.6666667 320.976,39.08 321.296,38.472 C321.616,37.864 321.962667,37.2613333 322.336,36.664 C322.709333,36.0666667 323.056,35.5013333 323.376,34.968 C323.802667,34.2853333 324.16,33.6933333 324.448,33.192 C324.736,32.6906667 324.901333,32.3226667 324.944,32.088 C325.008,31.7253333 324.88,31.4533333 324.56,31.272 C324.24,31.0906667 323.824,31 323.312,31 C322.992,31 322.661333,31.0266667 322.32,31.08 C321.978667,31.1333333 321.648,31.2133333 321.328,31.32 C321.008,31.4266667 320.714667,31.5546667 320.448,31.704 C320.181333,31.8533333 319.973333,32.024 319.824,32.216 C319.504,32.6853333 319.130667,33.3146667 318.704,34.104 C318.277333,34.8933333 317.850667,35.768 317.424,36.728 C316.997333,37.688 316.608,38.6746667 316.256,39.688 C315.904,40.7013333 315.664,41.6666667 315.536,42.584 C315.493333,43.416 315.594667,44.12 315.84,44.696 C316.085333,45.272 316.416,45.736 316.832,46.088 C317.248,46.44 317.733333,46.6906667 318.288,46.84 C318.842667,46.9893333 319.418667,47.064 320.016,47.064 Z M334.704,47.352 C336.048,47.288 337.354667,46.9893333 338.624,46.456 C339.893333,45.9226667 341.093333,45.2613333 342.224,44.472 C343.354667,43.6826667 344.389333,42.8346667 345.328,41.928 C346.266667,41.0213333 347.088,40.168 347.792,39.368 C348.496,38.568 349.050667,37.8906667 349.456,37.336 C349.861333,36.7813333 350.085333,36.4506667 350.128,36.344 C350.448,35.6613333 350.485333,35.16 350.24,34.84 C349.994667,34.52 349.658667,34.36 349.232,34.36 C348.954667,34.36 348.656,34.4613333 348.336,34.664 C348.016,34.8666667 347.770667,35.1066667 347.6,35.384 C347.493333,35.5546667 347.253333,35.8853333 346.88,36.376 C346.506667,36.8666667 346.037333,37.4426667 345.472,38.104 C344.906667,38.7653333 344.261333,39.464 343.536,40.2 C342.810667,40.936 342.048,41.6133333 341.248,42.232 C340.448,42.8506667 339.626667,43.3733333 338.784,43.8 C337.941333,44.2266667 337.114667,44.4613333 336.304,44.504 C335.856,44.5466667 335.450667,44.504 335.088,44.376 C334.725333,44.248 334.421333,44.0293333 334.176,43.72 C333.930667,43.4106667 333.749333,43 333.632,42.488 C333.514667,41.976 333.477333,41.3466667 333.52,40.6 C334.373333,40.408 335.296,40.12 336.288,39.736 C337.28,39.352 338.229333,38.8613333 339.136,38.264 C340.042667,37.6666667 340.864,36.9466667 341.6,36.104 C342.336,35.2613333 342.864,34.2853333 343.184,33.176 C343.226667,32.8773333 343.226667,32.5093333 343.184,32.072 C343.141333,31.6346667 343.013333,31.2133333 342.8,30.808 C342.586667,30.4026667 342.266667,30.0613333 341.84,29.784 C341.413333,29.5066667 340.837333,29.368 340.112,29.368 C339.045333,29.3893333 338.053333,29.5866667 337.136,29.96 C336.218667,30.3333333 335.376,30.8186667 334.608,31.416 C333.84,32.0133333 333.146667,32.6853333 332.528,33.432 C331.909333,34.1786667 331.370667,34.936 330.912,35.704 C330.453333,36.472 330.074667,37.224 329.776,37.96 C329.477333,38.696 329.253333,39.3306667 329.104,39.864 C328.805333,41.1866667 328.816,42.3173333 329.136,43.256 C329.456,44.1946667 329.930667,44.968 330.56,45.576 C331.189333,46.184 331.882667,46.6266667 332.64,46.904 C333.397333,47.1813333 334.085333,47.3306667 334.704,47.352 Z M334.096,37.944 C334.373333,37.2826667 334.714667,36.6053333 335.12,35.912 C335.525333,35.2186667 335.952,34.5893333 336.4,34.024 C336.848,33.4586667 337.301333,32.9893333 337.76,32.616 C338.218667,32.2426667 338.629333,32.0453333 338.992,32.024 C339.226667,32.0026667 339.386667,32.1093333 339.472,32.344 C339.557333,32.5786667 339.525333,32.9306667 339.376,33.4 C339.12,34.1253333 338.789333,34.7493333 338.384,35.272 C337.978667,35.7946667 337.541333,36.232 337.072,36.584 C336.602667,36.936 336.112,37.2186667 335.6,37.432 C335.088,37.6453333 334.586667,37.816 334.096,37.944 Z M364.816,47 C366.693333,47 368.469333,46.456 370.144,45.368 C371.818667,44.28 373.242667,42.7653333 374.416,40.824 C375.162667,41.2293333 375.898667,41.432 376.624,41.432 C377.690667,41.3253333 378.64,41.0906667 379.472,40.728 C380.304,40.3653333 381.034667,39.9386667 381.664,39.448 C382.293333,38.9573333 382.826667,38.4346667 383.264,37.88 C383.701333,37.3253333 384.064,36.792 384.352,36.28 C384.64,35.768 384.858667,35.32 385.008,34.936 C385.157333,34.552 385.253333,34.2746667 385.296,34.104 C385.338667,33.9333333 385.328,33.7626667 385.264,33.592 C385.2,33.4213333 385.093333,33.2666667 384.944,33.128 C384.794667,32.9893333 384.629333,32.8773333 384.448,32.792 C384.266667,32.7066667 384.08,32.664 383.888,32.664 C383.290667,32.664 382.928,32.9626667 382.8,33.56 C382.608,34.136 382.288,34.7333333 381.84,35.352 C381.392,35.9706667 380.885333,36.5306667 380.32,37.032 C379.754667,37.5333333 379.152,37.9493333 378.512,38.28 C377.872,38.6106667 377.264,38.776 376.688,38.776 C376.282667,38.776 375.930667,38.6906667 375.632,38.52 C375.781333,38.1146667 375.930667,37.6986667 376.08,37.272 C376.229333,36.8453333 376.368,36.408 376.496,35.96 L376.496,35.96 L376.496,35.992 C376.645333,35.4373333 376.714667,34.8613333 376.704,34.264 C376.693333,33.6666667 376.581333,33.1333333 376.368,32.664 C376.154667,32.1946667 375.856,31.8266667 375.472,31.56 C375.088,31.2933333 374.608,31.224 374.032,31.352 C373.498667,31.4586667 373.04,31.6506667 372.656,31.928 C372.272,32.2053333 371.946667,32.5253333 371.68,32.888 C371.413333,33.2506667 371.210667,33.64 371.072,34.056 C370.933333,34.472 370.832,34.872 370.768,35.256 C370.661333,35.8746667 370.682667,36.408 370.832,36.856 C370.917333,37.1546667 371.04,37.4533333 371.2,37.752 C371.36,38.0506667 371.546667,38.3493333 371.76,38.648 C371.44,39.224 371.082667,39.8266667 370.688,40.456 C370.293333,41.0853333 369.850667,41.6666667 369.36,42.2 C368.869333,42.7333333 368.330667,43.176 367.744,43.528 C367.157333,43.88 366.522667,44.0666667 365.84,44.088 C365.349333,44.1093333 364.933333,44.0293333 364.592,43.848 C364.250667,43.6666667 363.968,43.4106667 363.744,43.08 C363.52,42.7493333 363.349333,42.3653333 363.232,41.928 C363.114667,41.4906667 363.045333,41.0266667 363.024,40.536 C363.749333,39.6613333 364.389333,38.7973333 364.944,37.944 C365.498667,37.0906667 365.957333,36.3226667 366.32,35.64 C366.533333,35.256 366.693333,34.9093333 366.8,34.6 C366.906667,34.2906667 366.981333,33.9866667 367.024,33.688 C367.130667,32.8346667 366.970667,32.1946667 366.544,31.768 C366.117333,31.3413333 365.562667,31.128 364.88,31.128 C364.432,31.128 363.962667,31.2186667 363.472,31.4 C362.981333,31.5813333 362.501333,31.8533333 362.032,32.216 C361.562667,32.5786667 361.130667,33.0266667 360.736,33.56 C360.341333,34.0933333 360.026667,34.7226667 359.792,35.448 C359.664,35.8533333 359.552,36.264 359.456,36.68 C359.36,37.096 359.28,37.5173333 359.216,37.944 C359.066667,38.9893333 359.056,40.0453333 359.184,41.112 C358.672,41.496 358.144,41.848 357.6,42.168 C357.056,42.488 356.528,42.7653333 356.016,43 C355.504,43.2346667 355.013333,43.416 354.544,43.544 C354.074667,43.672 353.669333,43.736 353.328,43.736 C352.837333,43.736 352.416,43.608 352.064,43.352 C351.712,43.096 351.434667,42.76 351.232,42.344 C351.029333,41.928 350.901333,41.448 350.848,40.904 C350.794667,40.36 350.821333,39.7786667 350.928,39.16 C351.077333,38.1786667 351.386667,37.2346667 351.856,36.328 C352.325333,35.4213333 352.848,34.5893333 353.424,33.832 C354,33.0746667 354.576,32.392 355.152,31.784 C355.728,31.176 356.218667,30.68 356.624,30.296 C356.986667,29.9546667 357.258667,29.672 357.44,29.448 C357.621333,29.224 357.658667,29.048 357.552,28.92 L357.552,28.92 L357.552,28.984 C357.488,28.856 357.333333,28.7813333 357.088,28.76 C356.842667,28.7386667 356.554667,28.7386667 356.224,28.76 C355.893333,28.7813333 355.536,28.8186667 355.152,28.872 C354.768,28.9253333 354.416,28.9733333 354.096,29.016 L354.096,29.016 L353.488,29.112 C353.317333,29.1333333 353.056,29.2613333 352.704,29.496 C352.352,29.7306667 351.946667,30.056 351.488,30.472 C351.029333,30.888 350.549333,31.4 350.048,32.008 C349.546667,32.616 349.072,33.3093333 348.624,34.088 C348.176,34.8666667 347.776,35.7146667 347.424,36.632 C347.072,37.5493333 346.821333,38.5413333 346.672,39.608 C346.565333,40.4186667 346.597333,41.2613333 346.768,42.136 C346.938667,43.0106667 347.248,43.8053333 347.696,44.52 C348.144,45.2346667 348.730667,45.8213333 349.456,46.28 C350.181333,46.7386667 351.056,46.9573333 352.08,46.936 C353.509333,46.8933333 354.874667,46.568 356.176,45.96 C357.477333,45.352 358.693333,44.5786667 359.824,43.64 C360.250667,44.5573333 360.869333,45.32 361.68,45.928 C362.490667,46.536 363.536,46.8933333 364.816,47 Z M363.408,36.152 C363.557333,35.512 363.701333,34.984 363.84,34.568 C363.978667,34.152 364.090667,33.944 364.176,33.944 L364.176,33.944 L364.208,33.944 C364.314667,33.9653333 364.277333,34.2053333 364.096,34.664 C363.914667,35.1226667 363.685333,35.6186667 363.408,36.152 Z" id="ExclusivePreview" fill="#FFFFFF"></path>
            </g>
        </g>
    </g>
</svg>