<?xml version="1.0" encoding="UTF-8"?>
<svg width="241px" height="50px" viewBox="0 0 241 50" version="1.1" xmlns="http://www.w3.org/2000/svg" xmlns:xlink="http://www.w3.org/1999/xlink">
    <!-- Generator: sketchtool 62 (101010) - https://sketch.com -->
    <title>1FED9DC3-FB17-43CF-B8E8-1B66704B1867</title>
    <desc>Created with sketchtool.</desc>
    <defs>
        <linearGradient x1="0%" y1="66.9297443%" x2="86.8817006%" y2="66.9297443%" id="linearGradient-1">
            <stop stop-color="#5468FF" offset="0%"></stop>
            <stop stop-color="#2EB0FF" offset="63.0220355%"></stop>
            <stop stop-color="#34EFFF" offset="100%"></stop>
        </linearGradient>
        <linearGradient x1="80.1305768%" y1="39.0797781%" x2="23.4667044%" y2="62.0605297%" id="linearGradient-2">
            <stop stop-color="#86FFBB" offset="0%"></stop>
            <stop stop-color="#009FFF" offset="100%"></stop>
        </linearGradient>
        <linearGradient x1="-75.2029125%" y1="66.9297443%" x2="78.6065926%" y2="66.9297443%" id="linearGradient-3">
            <stop stop-color="#5468FF" offset="0%"></stop>
            <stop stop-color="#2EB0FF" offset="63.0220355%"></stop>
            <stop stop-color="#28D5FF" offset="100%"></stop>
        </linearGradient>
        <linearGradient x1="84.2343539%" y1="50%" x2="7.03691751%" y2="50%" id="linearGradient-4">
            <stop stop-color="#28D5FF" offset="0%"></stop>
            <stop stop-color="#5666E9" offset="48.2105152%"></stop>
            <stop stop-color="#262932" offset="100%"></stop>
        </linearGradient>
        <linearGradient x1="84.2343539%" y1="50%" x2="7.03691751%" y2="50%" id="linearGradient-5">
            <stop stop-color="#28D5FF" offset="0%"></stop>
            <stop stop-color="#5666E9" offset="48.2105152%"></stop>
            <stop stop-color="#262932" offset="100%"></stop>
        </linearGradient>
        <linearGradient x1="84.2343539%" y1="50%" x2="7.03691751%" y2="50%" id="linearGradient-6">
            <stop stop-color="#28D5FF" offset="0%"></stop>
            <stop stop-color="#5666E9" offset="48.2105152%"></stop>
            <stop stop-color="#262932" offset="100%"></stop>
        </linearGradient>
    </defs>
    <g id="2020-Final" stroke="none" stroke-width="1" fill="none" fill-rule="evenodd">
        <g id="NADA-2020_Micro-site" transform="translate(-1303.000000, -48.000000)">
            <g id="On-light-background" transform="translate(1303.000000, 48.000000)">
                <g id="Group-2">
                    <path d="M128.051,34.783 C128.877004,34.783 129.611997,34.9194986 130.256,35.1925 C130.900003,35.4655014 131.438998,35.8434976 131.873,36.3265 C132.307002,36.8095024 132.635999,37.3799967 132.86,38.038 C133.084001,38.6960033 133.196,39.4099961 133.196,40.18 L133.196,40.432 C133.182,40.5160004 133.175,40.5929997 133.175,40.663 C133.161,40.733 133.154,40.8099996 133.154,40.894 L125.405,40.894 C125.461,41.3140021 125.576499,41.6744985 125.7515,41.9755 C125.926501,42.2765015 126.143499,42.528499 126.4025,42.7315 C126.661501,42.934501 126.944998,43.0814995 127.253,43.1725 C127.561002,43.2635005 127.875998,43.309 128.198,43.309 C128.828003,43.309 129.349498,43.1655014 129.7625,42.8785 C130.175502,42.5914986 130.500999,42.2310022 130.739,41.797 L133.028,42.931 C132.551998,43.7710042 131.911504,44.4499974 131.1065,44.968 C130.301496,45.4860026 129.318006,45.745 128.156,45.745 C127.371996,45.745 126.647503,45.6085014 125.9825,45.3355 C125.317497,45.0624986 124.740002,44.6810025 124.25,44.191 C123.759998,43.7009976 123.378501,43.1235033 123.1055,42.4585 C122.832499,41.7934967 122.696,41.062004 122.696,40.264 C122.696,39.5219963 122.828999,38.8185033 123.095,38.1535 C123.361001,37.4884967 123.731998,36.9075025 124.208,36.4105 C124.684002,35.9134975 125.247497,35.5180015 125.8985,35.224 C126.549503,34.9299985 127.266996,34.783 128.051,34.783 Z M225.393,30.373 L225.393,45.409 L222.81,45.409 L222.81,44.17 L222.642,44.17 C222.389999,44.6040022 221.998003,44.9749985 221.466,45.283 C220.933997,45.5910015 220.276004,45.745 219.492,45.745 C218.833997,45.745 218.207503,45.6085014 217.6125,45.3355 C217.017497,45.0624986 216.492502,44.6845024 216.0375,44.2015 C215.582498,43.7184976 215.222001,43.1410034 214.956,42.469 C214.689999,41.7969966 214.557,41.062004 214.557,40.264 C214.557,39.465996 214.689999,38.7310034 214.956,38.059 C215.222001,37.3869966 215.582498,36.8095024 216.0375,36.3265 C216.492502,35.8434976 217.017497,35.4655014 217.6125,35.1925 C218.207503,34.9194986 218.833997,34.783 219.492,34.783 C220.276004,34.783 220.933997,34.9369985 221.466,35.245 C221.998003,35.5530015 222.389999,35.9239978 222.642,36.358 L222.81,36.358 L222.642,34.888 L222.642,30.373 L225.393,30.373 Z M205.758,35.119 L205.758,41.02 C205.758,41.7620037 205.922498,42.3114982 206.2515,42.6685 C206.580502,43.0255018 207.059997,43.204 207.69,43.204 C208.068002,43.204 208.400499,43.1235008 208.6875,42.9625 C208.974501,42.8014992 209.219499,42.5845014 209.4225,42.3115 C209.625501,42.0384986 209.779499,41.7165019 209.8845,41.3455 C209.989501,40.9744981 210.042,40.5790021 210.042,40.159 L210.042,35.119 L212.793,35.119 L212.793,45.409 L210.21,45.409 L210.21,44.065 L210.042,44.065 C209.719998,44.5830026 209.286003,44.9924985 208.74,45.2935 C208.193997,45.5945015 207.571004,45.745 206.871,45.745 C205.568993,45.745 204.599503,45.346004 203.9625,44.548 C203.325497,43.749996 203.007,42.6860066 203.007,41.356 L203.007,35.119 L205.758,35.119 Z M195.867,34.783 C196.665004,34.783 197.396497,34.9194986 198.0615,35.1925 C198.726503,35.4655014 199.300498,35.8434976 199.7835,36.3265 C200.266502,36.8095024 200.644499,37.3869966 200.9175,38.059 C201.190501,38.7310034 201.327,39.465996 201.327,40.264 C201.327,41.062004 201.190501,41.7969966 200.9175,42.469 C200.644499,43.1410034 200.266502,43.7184976 199.7835,44.2015 C199.300498,44.6845024 198.726503,45.0624986 198.0615,45.3355 C197.396497,45.6085014 196.665004,45.745 195.867,45.745 C195.068996,45.745 194.337503,45.6085014 193.6725,45.3355 C193.007497,45.0624986 192.433502,44.6845024 191.9505,44.2015 C191.467498,43.7184976 191.089501,43.1410034 190.8165,42.469 C190.543499,41.7969966 190.407,41.062004 190.407,40.264 C190.407,39.465996 190.543499,38.7310034 190.8165,38.059 C191.089501,37.3869966 191.467498,36.8095024 191.9505,36.3265 C192.433502,35.8434976 193.007497,35.4655014 193.6725,35.1925 C194.337503,34.9194986 195.068996,34.783 195.867,34.783 Z M177.954,30.037 C179.158006,30.037 180.218495,30.2469979 181.1355,30.667 C182.052505,31.087 182.867996,31.695996 183.582,32.494 L181.587,34.426 C181.138998,33.9079974 180.624503,33.4950015 180.0435,33.187 C179.462497,32.8789985 178.773004,32.725 177.975,32.725 C177.274997,32.725 176.617003,32.8474988 176.001,33.0925 C175.384997,33.3375012 174.849502,33.6839978 174.3945,34.132 C173.939498,34.5800022 173.579,35.1224968 173.313,35.7595 C173.046999,36.3965032 172.914,37.1069961 172.914,37.891 C172.914,38.6750039 173.046999,39.3854968 173.313,40.0225 C173.579,40.6595032 173.939498,41.2019978 174.3945,41.65 C174.849502,42.0980022 175.384997,42.4444988 176.001,42.6895 C176.617003,42.9345012 177.274997,43.057 177.975,43.057 C178.815004,43.057 179.560497,42.8855017 180.2115,42.5425 C180.862503,42.1994983 181.439997,41.7130032 181.944,41.083 L183.96,42.994 C183.217996,43.8900045 182.343005,44.5724977 181.335,45.0415 C180.326995,45.5105023 179.200006,45.745 177.954,45.745 C176.833994,45.745 175.794505,45.542002 174.8355,45.136 C173.876495,44.729998 173.047004,44.1770035 172.347,43.477 C171.646997,42.7769965 171.094002,41.9475048 170.688,40.9885 C170.281998,40.0294952 170.079,38.9970055 170.079,37.891 C170.079,36.7849945 170.281998,35.7525048 170.688,34.7935 C171.094002,33.8344952 171.646997,33.0050035 172.347,32.305 C173.047004,31.6049965 173.876495,31.052002 174.8355,30.646 C175.794505,30.239998 176.833994,30.037 177.954,30.037 Z M147.518,34.783 C149.114008,34.783 150.331996,35.1574963 151.172,35.9065 C152.012004,36.6555037 152.432,37.7649927 152.432,39.235 L152.432,45.409 L149.723,45.409 L149.723,44.317 L149.555,44.317 C149.232998,44.709002 148.844502,45.0449986 148.3895,45.325 C147.934498,45.6050014 147.350004,45.745 146.636,45.745 C146.103997,45.745 145.603502,45.6575009 145.1345,45.4825 C144.665498,45.3074991 144.256002,45.0660015 143.906,44.758 C143.555998,44.4499985 143.283001,44.0790022 143.087,43.645 C142.890999,43.2109978 142.793,42.7350026 142.793,42.217 C142.793,41.6849973 142.897999,41.2055021 143.108,40.7785 C143.318001,40.3514979 143.611998,39.9840015 143.99,39.676 C144.368002,39.3679985 144.812497,39.1335008 145.3235,38.9725 C145.834503,38.8114992 146.390997,38.731 146.993,38.731 C147.665003,38.731 148.217998,38.7834995 148.652,38.8885 C149.086002,38.9935005 149.443,39.1019994 149.723,39.214 L149.723,38.899 C149.723,38.3529973 149.506002,37.9015018 149.072,37.5445 C148.637998,37.1874982 148.099003,37.009 147.455,37.009 C146.502995,37.009 145.698003,37.407996 145.04,38.206 L143.045,36.841 C144.137005,35.4689931 145.627991,34.783 147.518,34.783 Z M138.845,31.969 L138.845,35.119 L141.365,35.119 L141.365,37.471 L138.845,37.471 L138.845,41.461 C138.845,41.6990012 138.8695,41.919499 138.9185,42.1225 C138.9675,42.325501 139.061999,42.4969993 139.202,42.637 C139.398001,42.8610011 139.677998,42.973 140.042,42.973 C140.280001,42.973 140.468999,42.9485002 140.609,42.8995 C140.749001,42.8504998 140.881999,42.7840004 141.008,42.7 L141.785,45.115 C141.462998,45.269 141.116502,45.3844996 140.7455,45.4615 C140.374498,45.5385004 139.965002,45.577 139.517,45.577 C138.998997,45.577 138.533502,45.4965008 138.1205,45.3355 C137.707498,45.1744992 137.361001,44.9540014 137.081,44.674 C136.422997,44.0439968 136.094,43.1480058 136.094,41.986 L136.094,37.471 L134.288,37.471 L134.288,35.119 L136.094,35.119 L136.094,31.969 L138.845,31.969 Z M188.643,30.373 L188.643,45.409 L185.892,45.409 L185.892,30.373 L188.643,30.373 Z M162.806,30.373 L162.806,45.409 L160.055,45.409 L160.055,30.373 L162.806,30.373 Z M157.535,35.119 L157.535,45.409 L154.784,45.409 L154.784,35.119 L157.535,35.119 Z M116.081,30.373 C116.837004,30.373 117.522997,30.4919988 118.139,30.73 C118.755003,30.9680012 119.283498,31.2969979 119.7245,31.717 C120.165502,32.1370021 120.504999,32.6374971 120.743,33.2185 C120.981001,33.7995029 121.1,34.4329966 121.1,35.119 C121.1,35.623 121.016001,36.0954978 120.848,36.5365 C120.679999,36.9775022 120.449001,37.3764982 120.155,37.7335 C119.860999,38.0905018 119.518002,38.4054986 119.126,38.6785 C118.733998,38.9515014 118.321002,39.1649992 117.887,39.319 L117.866,39.466 L121.898,45.241 L121.898,45.409 L118.643,45.409 L114.758,39.76 L113.435,39.76 L113.435,45.409 L110.6,45.409 L110.6,30.373 L116.081,30.373 Z M147.602,40.726 C146.944,40.726 146.436502,40.8694986 146.0795,41.1565 C145.722498,41.4435014 145.544,41.7969979 145.544,42.217 C145.544,42.6370021 145.715498,42.9729987 146.0585,43.225 C146.401502,43.4770013 146.796998,43.603 147.245,43.603 C147.609002,43.603 147.944998,43.5365007 148.253,43.4035 C148.561002,43.2704993 148.823499,43.0955011 149.0405,42.8785 C149.257501,42.6614989 149.425499,42.4095014 149.5445,42.1225 C149.663501,41.8354986 149.723,41.5380015 149.723,41.23 C149.400998,41.076 149.068502,40.9535005 148.7255,40.8625 C148.382498,40.7714995 148.008002,40.726 147.602,40.726 Z M220.059,37.324 C219.694998,37.324 219.348502,37.3939993 219.0195,37.534 C218.690498,37.674 218.400001,37.8699987 218.148,38.122 C217.895999,38.374 217.693001,38.6819982 217.539,39.046 C217.384999,39.4100018 217.308,39.8159978 217.308,40.264 C217.308,40.7120022 217.384999,41.1179982 217.539,41.482 C217.693001,41.8460018 217.895999,42.1539987 218.148,42.406 C218.400001,42.6580013 218.690498,42.8539993 219.0195,42.994 C219.348502,43.1340007 219.694998,43.204 220.059,43.204 C220.423002,43.204 220.769498,43.1375007 221.0985,43.0045 C221.427502,42.8714993 221.717999,42.6790013 221.97,42.427 C222.222001,42.1749987 222.424999,41.8670018 222.579,41.503 C222.733001,41.1389982 222.81,40.7260023 222.81,40.264 C222.81,39.8019977 222.733001,39.3890018 222.579,39.025 C222.424999,38.6609982 222.222001,38.3530013 221.97,38.101 C221.717999,37.8489987 221.427502,37.6565007 221.0985,37.5235 C220.769498,37.3904993 220.423002,37.324 220.059,37.324 Z M195.867,37.324 C195.502998,37.324 195.160002,37.3904993 194.838,37.5235 C194.515998,37.6565007 194.229001,37.8489987 193.977,38.101 C193.724999,38.3530013 193.525501,38.6609982 193.3785,39.025 C193.231499,39.3890018 193.158,39.8019977 193.158,40.264 C193.158,40.7260023 193.231499,41.1389982 193.3785,41.503 C193.525501,41.8670018 193.724999,42.1749987 193.977,42.427 C194.229001,42.6790013 194.515998,42.8714993 194.838,43.0045 C195.160002,43.1375007 195.502998,43.204 195.867,43.204 C196.217002,43.204 196.556498,43.1375007 196.8855,43.0045 C197.214502,42.8714993 197.504999,42.6790013 197.757,42.427 C198.009001,42.1749987 198.208499,41.8670018 198.3555,41.503 C198.502501,41.1389982 198.576,40.7260023 198.576,40.264 C198.576,39.8019977 198.502501,39.3890018 198.3555,39.025 C198.208499,38.6609982 198.009001,38.3530013 197.757,38.101 C197.504999,37.8489987 197.214502,37.6565007 196.8855,37.5235 C196.556498,37.3904993 196.217002,37.324 195.867,37.324 Z M128.051,37.03 C127.462997,37.03 126.945002,37.1979983 126.497,37.534 C126.048998,37.8700017 125.734001,38.338997 125.552,38.941 L130.529,38.941 C130.515,38.7589991 130.455501,38.5560011 130.3505,38.332 C130.245499,38.1079989 130.091501,37.898001 129.8885,37.702 C129.685499,37.505999 129.433502,37.3450006 129.1325,37.219 C128.831498,37.0929994 128.471002,37.03 128.051,37.03 Z M116.102,32.977 L113.435,32.977 L113.435,37.156 L116.06,37.156 C116.704003,37.156 117.232498,36.960002 117.6455,36.568 C118.058502,36.175998 118.265,35.679003 118.265,35.077 C118.265,34.8109987 118.2195,34.5520013 118.1285,34.3 C118.0375,34.0479987 117.901001,33.824001 117.719,33.628 C117.536999,33.431999 117.309501,33.2745006 117.0365,33.1555 C116.763499,33.0364994 116.452002,32.977 116.102,32.977 Z M156.149,30.1 C156.639002,30.1 157.058998,30.2714983 157.409,30.6145 C157.759002,30.9575017 157.934,31.3739976 157.934,31.864 C157.934,32.3540025 157.759002,32.7704983 157.409,33.1135 C157.058998,33.4565017 156.639002,33.628 156.149,33.628 C155.910999,33.628 155.683501,33.5825005 155.4665,33.4915 C155.249499,33.4004995 155.060501,33.2745008 154.8995,33.1135 C154.738499,32.9524992 154.6125,32.767001 154.5215,32.557 C154.4305,32.346999 154.385,32.1160013 154.385,31.864 C154.385,31.6119987 154.4305,31.3810011 154.5215,31.171 C154.6125,30.960999 154.738499,30.7755008 154.8995,30.6145 C155.060501,30.4534992 155.249499,30.3275005 155.4665,30.2365 C155.683501,30.1454995 155.910999,30.1 156.149,30.1 Z M220.171,13.083 C220.997004,13.083 221.731997,13.2194986 222.376,13.4925 C223.020003,13.7655014 223.558998,14.1434976 223.993,14.6265 C224.427002,15.1095024 224.755999,15.6799967 224.98,16.338 C225.204001,16.9960033 225.316,17.7099961 225.316,18.48 L225.316,18.732 C225.302,18.8160004 225.295,18.8929996 225.295,18.963 C225.281,19.033 225.274,19.1099996 225.274,19.194 L217.525,19.194 C217.581,19.6140021 217.696499,19.9744985 217.8715,20.2755 C218.046501,20.5765015 218.263499,20.828499 218.5225,21.0315 C218.781501,21.234501 219.064998,21.3814995 219.373,21.4725 C219.681002,21.5635005 219.995998,21.609 220.318,21.609 C220.948003,21.609 221.469498,21.4655014 221.8825,21.1785 C222.295502,20.8914986 222.620999,20.5310022 222.859,20.097 L225.148,21.231 C224.671998,22.0710042 224.031504,22.7499974 223.2265,23.268 C222.421496,23.7860026 221.438006,24.045 220.276,24.045 C219.491996,24.045 218.767503,23.9085014 218.1025,23.6355 C217.437497,23.3624986 216.860002,22.9810024 216.37,22.491 C215.879998,22.0009975 215.498501,21.4235033 215.2255,20.7585 C214.952499,20.0934967 214.816,19.362004 214.816,18.564 C214.816,17.8219963 214.948999,17.1185033 215.215,16.4535 C215.481001,15.7884967 215.851998,15.2075025 216.328,14.7105 C216.804002,14.2134975 217.367497,13.8180015 218.0185,13.524 C218.669503,13.2299985 219.386996,13.083 220.171,13.083 Z M182.623,13.083 C183.421004,13.083 184.152497,13.2194986 184.8175,13.4925 C185.482503,13.7655014 186.056498,14.1434976 186.5395,14.6265 C187.022502,15.1095024 187.400499,15.6869966 187.6735,16.359 C187.946501,17.0310034 188.083,17.765996 188.083,18.564 C188.083,19.362004 187.946501,20.0969966 187.6735,20.769 C187.400499,21.4410034 187.022502,22.0184976 186.5395,22.5015 C186.056498,22.9845024 185.482503,23.3624986 184.8175,23.6355 C184.152497,23.9085014 183.421004,24.045 182.623,24.045 C181.824996,24.045 181.093503,23.9085014 180.4285,23.6355 C179.763497,23.3624986 179.189502,22.9845024 178.7065,22.5015 C178.223498,22.0184976 177.845501,21.4410034 177.5725,20.769 C177.299499,20.0969966 177.163,19.362004 177.163,18.564 C177.163,17.765996 177.299499,17.0310034 177.5725,16.359 C177.845501,15.6869966 178.223498,15.1095024 178.7065,14.6265 C179.189502,14.1434976 179.763497,13.7655014 180.4285,13.4925 C181.093503,13.2194986 181.824996,13.083 182.623,13.083 Z M152.047,13.083 C152.845004,13.083 153.576497,13.2194986 154.2415,13.4925 C154.906503,13.7655014 155.480498,14.1434976 155.9635,14.6265 C156.446502,15.1095024 156.824499,15.6869966 157.0975,16.359 C157.370501,17.0310034 157.507,17.765996 157.507,18.564 C157.507,19.362004 157.370501,20.0969966 157.0975,20.769 C156.824499,21.4410034 156.446502,22.0184976 155.9635,22.5015 C155.480498,22.9845024 154.906503,23.3624986 154.2415,23.6355 C153.576497,23.9085014 152.845004,24.045 152.047,24.045 C151.248996,24.045 150.517503,23.9085014 149.8525,23.6355 C149.187497,23.3624986 148.613502,22.9845024 148.1305,22.5015 C147.647498,22.0184976 147.269501,21.4410034 146.9965,20.769 C146.723499,20.0969966 146.587,19.362004 146.587,18.564 C146.587,17.765996 146.723499,17.0310034 146.9965,16.359 C147.269501,15.6869966 147.647498,15.1095024 148.1305,14.6265 C148.613502,14.1434976 149.187497,13.7655014 149.8525,13.4925 C150.517503,13.2194986 151.248996,13.083 152.047,13.083 Z M129.367,13.419 L129.367,19.32 C129.367,20.0620037 129.531498,20.6114982 129.8605,20.9685 C130.189502,21.3255018 130.668997,21.504 131.299,21.504 C131.677002,21.504 132.009499,21.4235008 132.2965,21.2625 C132.583501,21.1014992 132.828499,20.8845014 133.0315,20.6115 C133.234501,20.3384986 133.388499,20.0165019 133.4935,19.6455 C133.598501,19.2744981 133.651,18.8790021 133.651,18.459 L133.651,13.419 L136.402,13.419 L136.402,23.709 L133.819,23.709 L133.819,22.365 L133.651,22.365 C133.328998,22.8830026 132.895003,23.2924985 132.349,23.5935 C131.802997,23.8945015 131.180004,24.045 130.48,24.045 C129.177993,24.045 128.208503,23.646004 127.5715,22.848 C126.934497,22.049996 126.616,20.9860066 126.616,19.656 L126.616,13.419 L129.367,13.419 Z M193.732,10.269 L193.732,13.419 L196.252,13.419 L196.252,15.771 L193.732,15.771 L193.732,19.761 C193.732,19.9990012 193.7565,20.219499 193.8055,20.4225 C193.8545,20.625501 193.948999,20.7969993 194.089,20.937 C194.285001,21.1610011 194.564998,21.273 194.929,21.273 C195.167001,21.273 195.355999,21.2485002 195.496,21.1995 C195.636001,21.1504998 195.768999,21.0840004 195.895,21 L196.672,23.415 C196.349998,23.569 196.003502,23.6844996 195.6325,23.7615 C195.261498,23.8385004 194.852002,23.877 194.404,23.877 C193.885997,23.877 193.420502,23.7965008 193.0075,23.6355 C192.594498,23.4744992 192.248001,23.2540014 191.968,22.974 C191.309997,22.3439968 190.981,21.4480058 190.981,20.286 L190.981,15.771 L189.175,15.771 L189.175,13.419 L190.981,13.419 L190.981,10.269 L193.732,10.269 Z M142.639,10.269 L142.639,13.419 L145.159,13.419 L145.159,15.771 L142.639,15.771 L142.639,19.761 C142.639,19.9990012 142.6635,20.219499 142.7125,20.4225 C142.7615,20.625501 142.855999,20.7969993 142.996,20.937 C143.192001,21.1610011 143.471998,21.273 143.836,21.273 C144.074001,21.273 144.262999,21.2485002 144.403,21.1995 C144.543001,21.1504998 144.675999,21.0840004 144.802,21 L145.579,23.415 C145.256998,23.569 144.910502,23.6844996 144.5395,23.7615 C144.168498,23.8385004 143.759002,23.877 143.311,23.877 C142.792997,23.877 142.327502,23.7965008 141.9145,23.6355 C141.501498,23.4744992 141.155001,23.2540014 140.875,22.974 C140.216997,22.3439968 139.888,21.4480058 139.888,20.286 L139.888,15.771 L138.082,15.771 L138.082,13.419 L139.888,13.419 L139.888,10.269 L142.639,10.269 Z M205.744,13.419 L208.306,19.971 L208.453,19.971 L211.036,13.419 L214.144,13.419 L209.713,23.709 L207.004,23.709 L202.615,13.419 L205.744,13.419 Z M201.187,13.419 L201.187,23.709 L198.436,23.709 L198.436,13.419 L201.187,13.419 Z M171.787,13.083 C172.417003,13.083 172.962998,13.184499 173.425,13.3875 C173.887002,13.590501 174.268498,13.8739982 174.5695,14.238 C174.870502,14.6020018 175.097999,15.0394974 175.252,15.5505 C175.406001,16.0615026 175.483,16.617997 175.483,17.22 L175.483,23.709 L172.732,23.709 L172.732,17.724 C172.732,16.323993 172.158006,15.624 171.01,15.624 C170.645998,15.624 170.324001,15.7044992 170.044,15.8655 C169.763999,16.0265008 169.529501,16.2434986 169.3405,16.5165 C169.151499,16.7895014 169.004501,17.1149981 168.8995,17.493 C168.794499,17.8710019 168.742,18.2769978 168.742,18.711 L168.742,23.709 L165.991,23.709 L165.991,17.724 C165.991,16.323993 165.389006,15.624 164.185,15.624 C163.834998,15.624 163.527001,15.7044992 163.261,15.8655 C162.994999,16.0265008 162.771,16.2434986 162.589,16.5165 C162.406999,16.7895014 162.267,17.1149981 162.169,17.493 C162.071,17.8710019 162.022,18.2769978 162.022,18.711 L162.022,23.709 L159.271,23.709 L159.271,13.419 L161.854,13.419 L161.854,14.763 L162.022,14.763 C162.344002,14.2589975 162.781497,13.8530015 163.3345,13.545 C163.887503,13.2369985 164.499997,13.083 165.172,13.083 C165.956004,13.083 166.613997,13.2649982 167.146,13.629 C167.678003,13.9930018 168.055999,14.4409973 168.28,14.973 C168.602002,14.4549974 169.056997,14.0105019 169.645,13.6395 C170.233003,13.2684981 170.946996,13.083 171.787,13.083 Z M119.623,8.673 L125.272,23.709 L122.143,23.709 L120.904,20.118 L115.108,20.118 L113.869,23.709 L110.74,23.709 L116.389,8.673 L119.623,8.673 Z M182.623,15.624 C182.258998,15.624 181.916002,15.6904993 181.594,15.8235 C181.271998,15.9565007 180.985001,16.1489987 180.733,16.401 C180.480999,16.6530013 180.281501,16.9609982 180.1345,17.325 C179.987499,17.6890018 179.914,18.1019977 179.914,18.564 C179.914,19.0260023 179.987499,19.4389982 180.1345,19.803 C180.281501,20.1670018 180.480999,20.4749987 180.733,20.727 C180.985001,20.9790013 181.271998,21.1714993 181.594,21.3045 C181.916002,21.4375007 182.258998,21.504 182.623,21.504 C182.973002,21.504 183.312498,21.4375007 183.6415,21.3045 C183.970502,21.1714993 184.260999,20.9790013 184.513,20.727 C184.765001,20.4749987 184.964499,20.1670018 185.1115,19.803 C185.258501,19.4389982 185.332,19.0260023 185.332,18.564 C185.332,18.1019977 185.258501,17.6890018 185.1115,17.325 C184.964499,16.9609982 184.765001,16.6530013 184.513,16.401 C184.260999,16.1489987 183.970502,15.9565007 183.6415,15.8235 C183.312498,15.6904993 182.973002,15.624 182.623,15.624 Z M152.047,15.624 C151.682998,15.624 151.340002,15.6904993 151.018,15.8235 C150.695998,15.9565007 150.409001,16.1489987 150.157,16.401 C149.904999,16.6530013 149.705501,16.9609982 149.5585,17.325 C149.411499,17.6890018 149.338,18.1019977 149.338,18.564 C149.338,19.0260023 149.411499,19.4389982 149.5585,19.803 C149.705501,20.1670018 149.904999,20.4749987 150.157,20.727 C150.409001,20.9790013 150.695998,21.1714993 151.018,21.3045 C151.340002,21.4375007 151.682998,21.504 152.047,21.504 C152.397002,21.504 152.736498,21.4375007 153.0655,21.3045 C153.394502,21.1714993 153.684999,20.9790013 153.937,20.727 C154.189001,20.4749987 154.388499,20.1670018 154.5355,19.803 C154.682501,19.4389982 154.756,19.0260023 154.756,18.564 C154.756,18.1019977 154.682501,17.6890018 154.5355,17.325 C154.388499,16.9609982 154.189001,16.6530013 153.937,16.401 C153.684999,16.1489987 153.394502,15.9565007 153.0655,15.8235 C152.736498,15.6904993 152.397002,15.624 152.047,15.624 Z M118.09,11.928 L117.922,11.928 L117.376,13.755 L116.032,17.514 L119.98,17.514 L118.636,13.755 L118.09,11.928 Z M220.171,15.33 C219.582997,15.33 219.065002,15.4979983 218.617,15.834 C218.168998,16.1700017 217.854001,16.638997 217.672,17.241 L222.649,17.241 C222.635,17.0589991 222.575501,16.8560011 222.4705,16.632 C222.365499,16.4079989 222.211501,16.198001 222.0085,16.002 C221.805499,15.805999 221.553502,15.6450006 221.2525,15.519 C220.951498,15.3929994 220.591002,15.33 220.171,15.33 Z M199.801,8.4 C200.291002,8.4 200.710998,8.57149828 201.061,8.9145 C201.411002,9.25750171 201.586,9.67399755 201.586,10.164 C201.586,10.6540024 201.411002,11.0704983 201.061,11.4135 C200.710998,11.7565017 200.291002,11.928 199.801,11.928 C199.562999,11.928 199.335501,11.8825005 199.1185,11.7915 C198.901499,11.7004995 198.712501,11.5745008 198.5515,11.4135 C198.390499,11.2524992 198.2645,11.067001 198.1735,10.857 C198.0825,10.6469989 198.037,10.4160013 198.037,10.164 C198.037,9.91199874 198.0825,9.68100105 198.1735,9.471 C198.2645,9.26099895 198.390499,9.0755008 198.5515,8.9145 C198.712501,8.75349919 198.901499,8.62750045 199.1185,8.5365 C199.335501,8.44549954 199.562999,8.4 199.801,8.4 Z" id="Combined-Shape" fill="#FFFFFF" fill-rule="nonzero"></path>
                    <path d="M232.28125,16 L232.28125,11.1960227 L234.0625,11.1960227 L234.0625,10.1818182 L229.284091,10.1818182 L229.284091,11.1960227 L231.065341,11.1960227 L231.065341,16 L232.28125,16 Z M235.874026,16 L235.874026,12.1988636 L235.922321,12.1988636 L237.428003,15.9715909 L238.240503,15.9715909 L239.746185,12.2130682 L239.794481,12.2130682 L239.794481,16 L240.987662,16 L240.987662,10.1818182 L239.470617,10.1818182 L237.868344,14.0909091 L237.800162,14.0909091 L236.19789,10.1818182 L234.680844,10.1818182 L234.680844,16 L235.874026,16 Z" id="TM" fill="#DADADA" fill-rule="nonzero"></path>
                    <g id="Group-17">
                        <path d="M84.4205774,27.755 C84.4205774,12.5732445 72.1133329,0.266 56.9315774,0.266 C55.4994962,0.266 54.0798161,0.375831319 52.6815625,0.593090727 C50.6224995,0.913026098 49.212658,2.84158529 49.5325934,4.90064826 C49.8525288,6.95971122 51.781088,8.36955269 53.8401509,8.04961732 C54.8554217,7.89186544 55.8877627,7.812 56.9315774,7.812 C67.9457922,7.812 76.8745774,16.7407852 76.8745774,27.755 C76.8745774,29.8387704 78.5638071,31.528 80.6475774,31.528 C82.7313478,31.528 84.4205774,29.8387704 84.4205774,27.755 Z" id="Path" fill="url(#linearGradient-1)"></path>
                        <path d="M49.959,49.854 L80.682,49.854 C87.8263555,49.854 93.618,44.0623555 93.618,36.918 C93.618,29.7736445 87.8263555,23.982 80.682,23.982 C78.5982296,23.982 76.909,25.6712296 76.909,27.755 C76.909,29.8387704 78.5982296,31.528 80.682,31.528 C83.6588148,31.528 86.072,33.9411852 86.072,36.918 C86.072,39.8948148 83.6588148,42.308 80.682,42.308 L49.959,42.308 C47.8752296,42.308 46.186,43.9972296 46.186,46.081 C46.186,48.1647704 47.8752296,49.854 49.959,49.854 Z" id="Path" fill="url(#linearGradient-2)"></path>
                        <path d="M58.639,34.979 L67.802,34.979 C69.8857704,34.979 71.575,33.2897704 71.575,31.206 C71.575,29.1222296 69.8857704,27.433 67.802,27.433 L58.639,27.433 C56.5552296,27.433 54.866,29.1222296 54.866,31.206 C54.866,33.2897704 56.5552296,34.979 58.639,34.979 Z" id="Path" fill="url(#linearGradient-3)"></path>
                        <path d="M21.392,49.854 L39.179,49.854 C41.2627704,49.854 42.952,48.1647704 42.952,46.081 C42.952,43.9972296 41.2627704,42.308 39.179,42.308 L21.392,42.308 C19.3082296,42.308 17.619,43.9972296 17.619,46.081 C17.619,48.1647704 19.3082296,49.854 21.392,49.854 Z" id="Path-Copy-4" fill="url(#linearGradient-4)" fill-rule="nonzero"></path>
                        <path d="M4.2,34.979 L47.859,34.979 C49.9427704,34.979 51.632,33.2897704 51.632,31.206 C51.632,29.1222296 49.9427704,27.433 47.859,27.433 L4.2,27.433 C2.11622964,27.433 0.427,29.1222296 0.427,31.206 C0.427,33.2897704 2.11622964,34.979 4.2,34.979 Z" id="Path-Copy-3" fill="url(#linearGradient-5)" fill-rule="nonzero"></path>
                        <path d="M28.728,7.812 L42.413,7.812 C44.4967704,7.812 46.186,6.12277036 46.186,4.039 C46.186,1.95522964 44.4967704,0.266 42.413,0.266 L28.728,0.266 C26.6442296,0.266 24.955,1.95522964 24.955,4.039 C24.955,6.12277036 26.6442296,7.812 28.728,7.812 Z" id="Path-Copy-2" fill="url(#linearGradient-6)" fill-rule="nonzero"></path>
                    </g>
                </g>
            </g>
        </g>
    </g>
</svg>